<svg xmlns="http://www.w3.org/2000/svg" width="1440" height="152" fill="none" viewBox="0 0 1440 152"><g clip-path="url(#a)"><path stroke="#09152F" stroke-width="2" d="M0-34c354.434 140.758 1109.38 144.562 1439 0"/><path fill="#F8F4E9" fill-rule="evenodd" d="M1179.88 36.539c-1.47-4.453-4.9-6.252-7.88-5.285-2.97.968-4.67 4.44-3.21 8.893 1.07 3.237 2.6 6.373 5.86 7.915-13.07 6.098-19.8 21.071-15.21 35.063 4.99 15.136 21.36 23.391 36.58 18.437 15.21-4.954 23.52-21.24 18.53-36.377-4.72-14.364-19.71-22.53-34.23-19.093.59-1.131.84-2.302.85-3.511.02-1.977-.62-4.016-1.29-6.043m-9.18 2.99c-1.23-3.74.31-5.857 1.93-6.385 1.62-.526 4.12.274 5.35 4.013.68 2.069 1.2 3.807 1.19 5.408-.01 1.477-.48 2.87-1.88 4.286-3.72-.763-5.35-3.566-6.59-7.323" clip-rule="evenodd"/><path fill="#F8F4E9" d="m1061.91 63.108 7.89 2.075a.5.5 0 0 1 .11.921l-7.49 4.163a.496.496 0 0 0-.21.661l4.48 8.957c.23.454-.29.918-.71.646l-9.11-5.795a.5.5 0 0 0-.65.102l-6.27 7.524c-.31.368-.91.137-.89-.341l.42-9.597a.5.5 0 0 0-.4-.51l-10.03-2.09c-.47-.1-.54-.757-.09-.95l8.58-3.677a.5.5 0 0 0 .26-.657l-3.68-8.603c-.2-.447.3-.877.72-.624l9.78 5.957c.22.131.5.08.65-.117l6.19-7.832c.31-.39.93-.14.89.355l-.81 8.903c-.02.243.13.466.37.529"/><path stroke="#09152F" stroke-width="2" d="M936 66.5v25"/><g filter="url(#b)"><path fill="#AF143C" d="M936 109.5a9 9 0 0 0 9-9 9 9 0 0 0-9-9 9 9 0 0 0-9 9 9 9 0 0 0 9 9"/></g><path fill="#AF143C" d="M936 109.5a9 9 0 0 0 9-9 9 9 0 0 0-9-9 9 9 0 0 0-9 9 9 9 0 0 0 9 9"/><path stroke="#09152F" stroke-width="2" d="M816.5 73v12"/><g filter="url(#c)"><path fill="#F8F4E9" d="M816.5 103a9 9 0 0 0 9-9 9 9 0 0 0-9-9 9 9 0 0 0-9 9 9 9 0 0 0 9 9"/></g><path fill="#F8F4E9" d="M816.5 103a9 9 0 0 0 9-9 9 9 0 0 0-9-9 9 9 0 0 0-9 9 9 9 0 0 0 9 9M603.024 79.029l3.729-7.534c.3-.607 1.151-.668 1.543-.116l4.184 5.913c.17.243.459.385.758.38l12.84-.314c.821-.02 1.234.956.645 1.514l-7.98 7.528a.867.867 0 0 0 .035 1.3l5.861 4.962c.655.551.212 1.605-.65 1.544l-12.66-.881a.9.9 0 0 0-.69.253l-7.373 7.164c-.608.592-1.635.091-1.516-.745l1.186-8.616a.86.86 0 0 0-.299-.78l-9.327-7.948c-.567-.48-.315-1.392.423-1.529l8.656-1.61a.88.88 0 0 0 .64-.48"/><path stroke="#09152F" stroke-width="2" d="M523 66v22"/><g filter="url(#d)"><path fill="#AF143C" d="M523 106a9 9 0 0 0 9-9 9 9 0 0 0-9-9 9 9 0 0 0-9 9 9 9 0 0 0 9 9"/></g><path fill="#AF143C" d="M523 106a9 9 0 0 0 9-9 9 9 0 0 0-9-9 9 9 0 0 0-9 9 9 9 0 0 0 9 9"/><path stroke="#09152F" stroke-width="2" d="M429.5 57.5v43"/><g filter="url(#e)"><path fill="#F8F4E9" d="M429.5 118.5a9 9 0 0 0 9-9 9 9 0 0 0-9-9 9 9 0 0 0-9 9 9 9 0 0 0 9 9"/></g><path fill="#F8F4E9" d="M429.5 118.5a9 9 0 0 0 9-9 9 9 0 0 0-9-9 9 9 0 0 0-9 9 9 9 0 0 0 9 9M320.438 42.216c6.4-3.2 10 .666 11 3 2.833-1.334 8.6-3.3 9-.5s-2.834 5.833-4.5 7c2.5 3.5 3.5 4.5 2.5 7.5-7 14-22 11.166-28 6.5-.833-.834-4-4.5 3-5 3-.215 5.833-3.834 6-4.5-2.334-3.334-5.4-10.8 1-14"/><path fill="#AF143C" fill-rule="evenodd" d="M210.921 25.32c1.633-4.392.064-7.924-2.869-9.002s-6.437.589-8.071 4.98c-1.187 3.193-1.946 6.595-.358 9.813-14.046-3.295-28.683 4.266-33.816 18.066-5.552 14.929 2.12 31.506 17.139 37.026s31.694-2.107 37.247-17.036c5.269-14.168-1.372-29.82-14.898-36.097 1.167-.523 2.095-1.285 2.858-2.225 1.247-1.538 2.025-3.527 2.768-5.526m-9.064-3.332c1.372-3.688 3.903-4.393 5.502-3.806 1.597.588 3.059 2.76 1.687 6.448-.759 2.04-1.439 3.721-2.449 4.967-.932 1.15-2.169 1.953-4.143 2.201-2.449-2.903-1.975-6.105-.597-9.81" clip-rule="evenodd"/></g><defs><filter id="b" width="66" height="66" x="903" y="67.5" color-interpolation-filters="sRGB" filterUnits="userSpaceOnUse"><feFlood flood-opacity="0" result="BackgroundImageFix"/><feBlend in="SourceGraphic" in2="BackgroundImageFix" result="shape"/><feGaussianBlur result="effect1_foregroundBlur_4_3931" stdDeviation="12"/></filter><filter id="c" width="66" height="66" x="783.5" y="61" color-interpolation-filters="sRGB" filterUnits="userSpaceOnUse"><feFlood flood-opacity="0" result="BackgroundImageFix"/><feBlend in="SourceGraphic" in2="BackgroundImageFix" result="shape"/><feGaussianBlur result="effect1_foregroundBlur_4_3931" stdDeviation="12"/></filter><filter id="d" width="66" height="66" x="490" y="64" color-interpolation-filters="sRGB" filterUnits="userSpaceOnUse"><feFlood flood-opacity="0" result="BackgroundImageFix"/><feBlend in="SourceGraphic" in2="BackgroundImageFix" result="shape"/><feGaussianBlur result="effect1_foregroundBlur_4_3931" stdDeviation="12"/></filter><filter id="e" width="66" height="66" x="396.5" y="76.5" color-interpolation-filters="sRGB" filterUnits="userSpaceOnUse"><feFlood flood-opacity="0" result="BackgroundImageFix"/><feBlend in="SourceGraphic" in2="BackgroundImageFix" result="shape"/><feGaussianBlur result="effect1_foregroundBlur_4_3931" stdDeviation="12"/></filter><clipPath id="a"><path fill="#fff" d="M0 0h1440v152H0z"/></clipPath></defs></svg>