<svg xmlns="http://www.w3.org/2000/svg" width="1440" height="248" fill="none" viewBox="0 0 1440 248"><path fill="#fff" d="m280.325 10.21-3.45 2.004-6.273-6.417 4.063-2.236z" opacity=".334"/><path fill="#fff" d="m827.658 23.537 1.744-3.596 8.777 1.804-2.125 4.133z" opacity=".255"/><path fill="#fff" d="m1162.11 16.953-1.8 6.209-5.91.519.82-6.56z" opacity=".784"/><path fill="#fff" d="m109.653 58.914-6.491-4.864 3.511-7.9 5.686 5.323z" opacity=".756"/><path fill="#fff" d="m1310.03 40.698 6.43.424 1.78 5.685-6.56.606z" opacity=".901"/><path fill="#fff" d="m1130.28 181.607-2.4-6.001 4.34-4.065 3.38 5.675z" opacity=".433"/><path fill="#fff" d="m646.186 62.493 5.633 5.847-7.789 2.25-4.531-4.588z" opacity=".904"/><path fill="#fff" d="m1240.03 222.612-3.35 6.712-7.58-1.158 4-6.842z" opacity=".479"/><path fill="#fff" d="m76.116 154.123-1.291-7.467 8.397-4.545 1.29 7.467z" opacity=".11"/><path fill="#fff" d="m998.926 6.024 1.424 7.443-8.317 4.693-1.423-7.443z" opacity=".623"/></svg>