<svg xmlns="http://www.w3.org/2000/svg" width="1440" height="248" fill="none" viewBox="0 0 1440 248"><path fill="#fff" d="m457.223 227.078 4.649 4.476-2.285 5.5-5.412-3.773z" opacity=".396"/><path fill="#fff" d="m353.93 172.921.241 6.455-6.401-1.423-.632-6.205z" opacity=".883"/><path fill="#fff" d="m60.5 240.015 5.483 3.381-4.732 4.553-5.494-2.917z" opacity=".69"/><path fill="#fff" d="m423.016 15.315 6.179-2.556 1.146 5.808-5.79 1.138z" opacity=".369"/><path fill="#fff" d="m800.181 136.892-6.428.328 1.333-6.441 6.174-.717z" opacity=".02"/><path fill="#fff" d="m10.731 29.405-6.906-3.068.894-9.531 6.906 3.067z" opacity=".839"/><path fill="#fff" d="m196.347 179.256.263 6.701-5.828-.921.928-5.847z" opacity=".213"/><path fill="#fff" d="m107.644 86.654 3.147 2.456-3.571 8.245-3.592-2.94z" opacity=".016"/><path fill="#fff" d="m1020.23 224.163 5.57 3.234-4.61 4.677-5.57-2.769z" opacity=".194"/><path fill="#fff" d="m1258.41 157.308-3.14 4.902-4.37-4.038 3.08-3.974z" opacity=".756"/><path fill="#fff" d="m1233.91 4.146 5.26-3.734 4.95 3.291-4.71 4.619z" opacity=".237"/><path fill="#fff" d="m858.748 67.73 7.37-1.657 4.932 8.195-7.37 1.656z" opacity=".954"/><path fill="#fff" d="m1428.17 21.57 5.28 5.318-3.5 6.846-5.2-5.971z" opacity=".521"/><path fill="#fff" d="m1418.94 152.101 5.21-3.784 2.37 6.132-4.79 3.972z" opacity=".695"/></svg>