<svg xmlns="http://www.w3.org/2000/svg" width="40" height="40" fill="none" viewBox="0 0 40 40"><path fill="#000" fill-rule="evenodd" d="M25.423.064c-7.142 3.545-8.725 4.514-10.098 6.184l-.66.803-1.155-.06c-1.604-.083-2.34.174-6.485 2.263L3.58 10.991l-.04 1.178-.039 1.177 1.9.66c5.49 1.904 6.718 2.355 6.76 2.48.025.076-.127.177-.339.224-.211.047-2.168.958-4.348 2.025l-3.963 1.94v2.376l.93.307.931.308-.935.407-.935.408.039 1.293.04 1.292 3.928 1.366c2.16.75 3.96 1.393 3.997 1.428.168.152-.865.738-4.312 2.446L3.5 34.136l.04 1.313.04 1.313 4.686 1.619c2.578.89 4.758 1.619 4.846 1.619.302 0 7.561-3.725 8.402-4.312.793-.554 2.673-2.42 2.673-2.654 0-.058.487-.073 1.083-.033.663.045 1.372.006 1.827-.1.408-.096 2.464-1.026 4.568-2.067l3.825-1.892v-1.223c0-1.028-.039-1.243-.241-1.346-.133-.067-2.025-.754-4.205-1.526-2.18-.771-3.963-1.441-3.963-1.488s.388-.223.862-.394c.474-.17 2.35-1.065 4.17-1.988l3.308-1.678.04-1.313.039-1.312-.763-.238c-.42-.132-.763-.276-.763-.322s.34-.249.758-.451l.758-.369V12.87l-4.066-1.414c-2.237-.777-4.067-1.457-4.067-1.51 0-.21 1.03-.79 4.47-2.52L35.42 5.62l.04-1.226.039-1.225-2.59-.852A452 452 0 0 1 28.042.68c-2.007-.69-2.32-.765-2.62-.616m-3.485 2.389c-2.034 1.044-4.038 2.16-4.455 2.478-.826.63-2.343 2.266-2.218 2.39.043.042 2.043.748 4.446 1.568l4.367 1.492 1.165-1.225c1.48-1.557 2.272-2.069 6.25-4.04 1.798-.891 3.147-1.636 3.032-1.673s-2.092-.704-4.397-1.482C27.823 1.184 25.869.55 25.786.551c-.084.002-1.815.857-3.848 1.902M11.16 7.9c-1.277.504-6.561 3.191-6.465 3.287.042.04 2.006.729 4.364 1.528l4.288 1.455 3.843-1.897c2.113-1.043 3.959-1.897 4.102-1.897.81 0-.002-.36-3.488-1.549-4.515-1.538-4.946-1.598-6.644-.927m15.102 3.012-.416.52.48.94c.573 1.125.826 2.558.69 3.918l-.093.944.389-.273c.214-.15 1.962-1.051 3.884-2.003 1.923-.952 3.474-1.75 3.446-1.775-.027-.024-1.569-.57-3.426-1.213s-3.639-1.262-3.958-1.374l-.58-.204zM4.062 12.276v.662l2.17.767c1.195.422 3.21 1.127 4.48 1.567l2.31.8v-.731c0-.403-.021-.732-.046-.732-.026 0-2.042-.674-4.48-1.498l-4.434-1.498zm17.208.567c-.277.065-1.518.62-2.757 1.233a212 212 0 0 1-3.926 1.89l-1.674.776 4.155 1.414 4.293 1.46c.086.03.142-.554.15-1.559.014-1.727.23-2.869.813-4.288.445-1.087.275-1.237-1.054-.926m2.96 1.561c-.253.467-.457 1.677-.456 2.703 0 1 .2 2.007.396 2.007.422 0 .723-3.313.397-4.369-.17-.551-.205-.586-.338-.34m6.122 3.428c-2.05 1.03-2.752 1.456-3.377 2.05l-.79.75.745-.058c.62-.049 1.332-.354 4.235-1.811l3.49-1.753-.65-.245c-.359-.134-.745-.242-.858-.239-.114.003-1.372.59-2.795 1.306m-19.123-.308c-.416.173-2.118.991-3.782 1.819l-3.023 1.504 1.231.416c.678.228 2.659.905 4.403 1.503l3.17 1.087 3.84-1.89c2.112-1.04 3.756-1.92 3.653-1.957-4.143-1.452-8.211-2.803-8.437-2.8-.163.002-.638.145-1.055.318m-7.167 4.445v.658l.792.284c2.193.787 7.942 2.755 8.047 2.755.066 0 .12-.293.12-.652v-.653l-1.275-.424c-.701-.233-2.717-.919-4.48-1.524L4.062 21.31zm16.748.679c-.38.137-2.26 1.027-4.177 1.979l-3.488 1.73-3.395-1.164c-1.867-.64-3.523-1.162-3.68-1.158-.157.003-.565.151-.906.33-.529.276-.581.338-.356.426.145.057 2.099.731 4.341 1.499l4.078 1.396 3.692-1.836c3.197-1.59 3.807-1.944 4.55-2.643.848-.8.853-.807.443-.807-.227 0-.723.112-1.102.248m3.25 1.756c-.407 1.202-.315 4.402.126 4.402.191 0 .552-1.83.552-2.799 0-.921-.23-2.115-.407-2.115-.054 0-.176.23-.271.512m2.953.204c.134.896-.174 2.896-.675 4.386l-.454 1.348.84-.067c.735-.059 1.279-.285 4.336-1.8 1.922-.953 3.473-1.753 3.446-1.78-.056-.052-7.428-2.667-7.52-2.667-.033 0-.02.261.027.58M4.09 25.88l.041.794 1.93.668c1.062.368 3.062 1.059 4.446 1.536l2.515.867-.002-.776-.002-.777-4.305-1.49-4.486-1.553c-.137-.049-.17.124-.137.73m16.996.478c-.227.154-2.08 1.11-4.118 2.124-3.398 1.692-3.749 1.837-4.238 1.755-.458-.077-.607-.032-1.051.316-.285.223-1.99 1.134-3.791 2.024s-3.274 1.651-3.274 1.69c0 .077 8.415 3.004 8.627 3.002.07-.002 1.77-.824 3.779-1.829 3.126-1.563 3.787-1.949 4.583-2.672.512-.465.93-.91.93-.987 0-.079-.187-.521-.417-.984-.507-1.018-.744-2.399-.643-3.731.04-.545.064-.99.05-.989-.012 0-.21.127-.437.28M4.09 35.589l.041.776 4.274 1.476c2.35.812 4.35 1.476 4.445 1.477.117 0 .172-.238.172-.737v-.737l-.999-.353c-3.167-1.12-7.733-2.678-7.844-2.678-.072 0-.112.35-.089.776" clip-rule="evenodd"/></svg>