<svg xmlns="http://www.w3.org/2000/svg" width="100" height="24" fill="none" viewBox="0 0 100 24"><g clip-path="url(#a)"><path fill="#fff" fill-rule="evenodd" d="M12.088 1.06A10.9 10.9 0 0 0 5.601 2.4a10.98 10.98 0 0 0-4.53 4.854 11.05 11.05 0 0 0-.915 6.593 11 11 0 0 0 3.037 5.915 10.92 10.92 0 0 0 5.876 3.07c2.227.39 4.52.075 6.562-.898a10.96 10.96 0 0 0 4.844-4.539 11.04 11.04 0 0 0 1.352-6.516 11 11 0 0 0-3.133-6.649 10.9 10.9 0 0 0-6.606-3.17m-.354 16.757a5.8 5.8 0 0 1-3.516-.634 5.85 5.85 0 0 1-2.49-2.575 5.89 5.89 0 0 1 1.096-6.746 5.81 5.81 0 0 1 6.71-1.123 5.85 5.85 0 0 1 2.569 2.494 5.89 5.89 0 0 1-1.011 6.912 5.82 5.82 0 0 1-3.358 1.672M27.68 1.496a2.54 2.54 0 0 0-1.979.952 2.57 2.57 0 0 0-.513 2.144c.24 1.209 1.364 2.035 2.588 2.035h7.103L23.825 21.33a.735.735 0 0 0 .578 1.175h17.34c1.223 0 2.348-.826 2.588-2.035a2.58 2.58 0 0 0-.513-2.144 2.56 2.56 0 0 0-1.978-.953h-8.655L44.231 2.682a.743.743 0 0 0-.198-1.075.73.73 0 0 0-.386-.111zm69.29.059a2.6 2.6 0 0 0-1.447.935 2.6 2.6 0 0 0-.545 1.64v8.543L81.204 1.657a.73.73 0 0 0-1.188.579v17.64c-.01.592.183 1.17.545 1.639a2.6 2.6 0 0 0 1.447.935 2.54 2.54 0 0 0 2.147-.506 2.56 2.56 0 0 0 .95-2v-8.617L98.88 22.343a.73.73 0 0 0 1.188-.578V4.06a2.58 2.58 0 0 0-.951-2 2.55 2.55 0 0 0-2.147-.506m-35.863 4.58c5.826 0 10.179 3.095 10.179 5.863 0 2.767-4.353 5.862-10.18 5.862-5.825 0-10.178-3.095-10.178-5.862s4.353-5.862 10.179-5.862m0-5.13c-8.433 0-15.268 4.921-15.268 10.993 0 6.07 6.835 10.993 15.268 10.993s15.268-4.922 15.268-10.993S69.54 1.005 61.107 1.005" clip-rule="evenodd"/></g><defs><clipPath id="a"><path fill="#fff" d="M0 0h100v24H0z"/></clipPath></defs></svg>