<svg xmlns="http://www.w3.org/2000/svg" width="40" height="40" fill="none" viewBox="0 0 40 40"><path fill="#000" fill-rule="evenodd" d="M15.02.405C8.835 1.783 4.822 5.813 3.257 12.22c-1.016 4.158-1.008 11.585.016 15.661 1.702 6.772 5.582 10.53 12.18 11.795 2.75.527 8.482.39 10.918-.261 5.482-1.466 9.23-5.209 10.571-10.555.267-1.065.485-2.708.485-3.652v-1.714h-3.584l-.382 2.477c-1.093 7.078-5.497 10.56-13.356 10.56-7.142 0-11.412-3.04-13.02-9.266-.693-2.684-.977-7.045-.66-10.108.523-5.024 1.441-7.53 3.652-9.967 2.473-2.726 6.042-3.922 11.011-3.692 7.325.34 11.495 3.981 12.438 10.86l.29 2.116H37.5l-.143-2.194c-.362-5.566-3.249-10.116-7.832-12.342C26.487.462 25.045.144 20.842.03c-2.977-.081-4.096-.01-5.822.375m.093 11.016c-1.532.556-2.87 1.783-3.261 2.99-.417 1.29-.181 3.92.426 4.755 1.269 1.744 3.326 2.424 9.179 3.033 2.77.289 3.739.662 3.635 1.4-.123.876-1.308 1.243-4.004 1.242-2.789-.002-4.202-.333-5.246-1.229-.646-.554-.945-.62-2.836-.62H10.89v5.516h4.423V26.7l.857.767c1.136 1.019 2.969 1.541 5.401 1.541 3.786 0 6.393-1.14 7.44-3.253.645-1.302.705-2.658.175-3.954-.97-2.37-3.169-3.352-8.59-3.837-4.18-.374-5.79-1.314-4.142-2.416.535-.358 1.153-.451 2.902-.44 2.595.017 4.13.406 4.965 1.256.538.55.802.61 2.674.61h2.077v-5.516h-4.177v.878c0 1.022-.08 1.057-.809.354-1.254-1.21-2.384-1.58-5.087-1.664-2.053-.063-2.848.017-3.887.394" clip-rule="evenodd"/><path fill="#000" d="M15.02.405C8.835 1.783 4.822 5.813 3.257 12.22c-1.016 4.158-1.008 11.585.016 15.661 1.702 6.772 5.582 10.53 12.18 11.795 2.75.527 8.482.39 10.918-.261 5.482-1.466 9.23-5.209 10.571-10.555.267-1.065.485-2.708.485-3.652v-1.714h-3.584l-.382 2.477c-1.093 7.078-5.497 10.56-13.356 10.56-7.142 0-11.412-3.04-13.02-9.266-.693-2.684-.977-7.045-.66-10.108.523-5.024 1.441-7.53 3.652-9.967 2.473-2.726 6.042-3.922 11.011-3.692 7.325.34 11.495 3.981 12.438 10.86l.29 2.116H37.5l-.143-2.194c-.362-5.566-3.249-10.116-7.832-12.342C26.487.462 25.045.144 20.842.03c-2.977-.081-4.096-.01-5.822.375"/><path fill="#000" d="M15.113 11.421c-1.532.556-2.87 1.783-3.261 2.99-.417 1.29-.181 3.92.426 4.755 1.269 1.744 3.326 2.424 9.179 3.033 2.77.289 3.739.662 3.635 1.4-.123.876-1.308 1.243-4.004 1.242-2.789-.002-4.202-.333-5.246-1.229-.646-.554-.945-.62-2.836-.62H10.89v5.516h4.423V26.7l.857.767c1.136 1.019 2.969 1.541 5.401 1.541 3.786 0 6.393-1.14 7.44-3.253.645-1.302.705-2.658.175-3.954-.97-2.37-3.169-3.352-8.59-3.837-4.18-.374-5.79-1.314-4.142-2.416.535-.358 1.153-.451 2.902-.44 2.595.017 4.13.406 4.965 1.256.538.55.802.61 2.674.61h2.077v-5.516h-4.177v.878c0 1.022-.08 1.057-.809.354-1.254-1.21-2.384-1.58-5.087-1.664-2.053-.063-2.848.017-3.887.394"/></svg>