<svg xmlns="http://www.w3.org/2000/svg" width="266" height="382" fill="none" viewBox="0 0 266 382"><g clip-path="url(#a)"><g clip-path="url(#b)"><path stroke="#F8F4E9" stroke-linecap="round" stroke-linejoin="round" stroke-miterlimit="10" stroke-width="1.5" d="m278.983 296.487-5.963 1.637c-.804.21-1.65 0-2.242-.546l-12.772-12.173c-.634-.588-.296-1.637.55-1.763l17.382-3.022c1.1-.21 2.199.168 3.003.923l3.214 3.106c.634.588.254 1.638-.592 1.764l-8.712 1.133c-.677.084-.931.923-.423 1.343l6.851 5.751c.719.588.508 1.637-.296 1.847"/><path stroke="#F8F4E9" stroke-linecap="round" stroke-linejoin="round" stroke-miterlimit="10" stroke-width="1.5" d="M334.978 283.39c.93-.21 1.649-.882 1.988-1.763l6.344-17.42c.676-2.267 4.313-1.092 3.764.965l-5.541 15.951c-.127.378.212.714.592.63l6.217-1.553c.931-.252 1.692-.882 2.03-1.763l3.384-8.605c.972-2.183 4.102-.966 3.214 1.259l-2.326 6.296c-.127.378.211.756.592.63l8.797-2.141c2.368-.462 3.129 2.645.549 2.938l-8.712 2.267c-.296.084.169.756.423 1.008l5.794 6.128c1.692 1.637-.254 4.24-2.241 2.519l-7.824-6.842c-.592-.504-1.396-.714-2.157-.504l-6.302 1.595c-.38.084-.507.588-.211.84l12.899 12.55c1.48 1.26.042 4.702-2.326 2.897l-14.718-13.936a2.5 2.5 0 0 0-2.199-.588l-5.752 1.427a1.038 1.038 0 0 0-.465 1.763l18.397 18.512c.804.797.381 2.183-.719 2.392l-24.825 5.206c-.931.209-1.058 1.133-.381 1.805 1.565 1.511 2.834 2.728 4.187 3.819.677.546 1.565.756 2.411.63l18.27-3.232c2.284-.546 3.087 3.148 1.057 3.694l-16.705 3.232c-.381.084-.508.546-.254.798l4.441 4.575a3.07 3.07 0 0 0 2.579.881l9.22-1.385c2.369-.252 2.918 3.065.508 3.4l-6.64 1.134c-.381.084-.55.545-.254.839l6.302 6.507c1.607 1.805-.719 4.029-2.284 1.931l-6.344-6.339c-.212-.252-.592.546-.677.84l-2.453 8.059c-.592 2.267-3.806 1.889-3.298-.672l2.114-10.494a1.71 1.71 0 0 0-.465-1.595l-4.737-4.827c-.296-.294-.761-.168-.846.252l-4.525 17.378c-.38 1.889-4.102 2.393-3.679-.588l4.821-19.645a2.42 2.42 0 0 0-.592-2.182l-4.145-4.24c-.549-.588-1.565-.336-1.776.462l-6.936 25.06c-.296 1.091-1.734 1.427-2.453.587l-16.621-18.679c-.634-.714-1.776-.42-2.03.504-.634 2.098-1.015 3.316-1.48 5.666a2.77 2.77 0 0 0 .634 2.393l12.011 14.146c1.65 1.679-1.226 4.24-2.706 2.771l-11.165-12.761c-.254-.294-.719-.168-.846.168l-1.734 6.086c-.254.924-.085 1.889.55 2.645l5.794 7.22c1.438 1.889-1.227 4.029-2.707 2.098l-4.314-5.163c-.254-.293-.761-.209-.846.168l-2.495 8.647c-.761 2.309-3.891 1.386-2.834-1.007l2.369-8.605c.084-.294-.761-.252-1.057-.168l-8.247 1.931c-2.284.629-3.553-2.351-1.058-3.19l10.193-3.4c.549-.168.972-.63 1.142-1.218l1.86-6.506c.127-.378-.253-.756-.634-.63l-17.424 4.828c-1.861.629-4.145-2.351-1.354-3.443l19.539-5.666c.762-.252 1.396-.84 1.607-1.637l1.607-5.667c.212-.798-.507-1.511-1.268-1.302l-25.333 6.591c-1.1.294-2.115-.756-1.734-1.847l8.162-24.389c.212-.671-.38-1.343-1.099-1.133-1.65.42-4.187 1.091-5.837 1.511-.93.21-1.649.882-1.988 1.763l-6.343 17.42c-.677 2.267-4.314 1.092-3.764-.965l5.54-15.951c.127-.378-.212-.714-.592-.63l-6.217 1.553c-.931.252-1.692.882-2.03 1.763l-3.384 8.606c-.972 2.182-4.102.965-3.214-1.26l2.326-6.296c.127-.378-.211-.756-.592-.63l-8.796 2.141c-2.369.462-3.13-2.644-.55-2.938l8.712-2.267c.296-.084-.169-.756-.423-1.007l-5.794-6.129c-1.692-1.637.254-4.24 2.241-2.519l7.824 6.843c.593.503 1.396.713 2.157.503l6.302-1.595c.381-.084.507-.588.211-.839l-12.899-12.551c-1.48-1.26-.042-4.702 2.326-2.897l14.718 13.936a2.5 2.5 0 0 0 2.199.588l5.752-1.427a1.038 1.038 0 0 0 .465-1.763l-18.397-18.512c-.804-.797-.381-2.182.719-2.392l24.826-5.205c.93-.21 1.057-1.134.38-1.805-1.565-1.512-2.833-2.729-4.187-3.82-.676-.546-1.565-.756-2.41-.63l-18.271 3.232c-2.283.546-3.087-3.148-1.057-3.694l16.705-3.232c.381-.084.508-.546.254-.797l-4.44-4.576a3.08 3.08 0 0 0-2.58-.881l-9.22 1.385c-2.368.252-2.918-3.064-.507-3.4l6.639-1.134c.381-.084.55-.545.254-.839l-6.301-6.506c-1.607-1.805.719-4.03 2.283-1.931l6.344 6.338c.212.252.592-.546.677-.839l2.453-8.06c.592-2.267 3.806-1.889 3.299.672l-2.115 10.494a1.71 1.71 0 0 0 .465 1.595l4.737 4.827c.296.294.761.168.846-.252l4.525-17.378c.381-1.889 4.102-2.393 3.679.588l-4.821 19.645a2.42 2.42 0 0 0 .592 2.182l4.145 4.24c.55.588 1.565.336 1.776-.462l6.936-25.06c.296-1.091 1.734-1.427 2.453-.587l16.621 18.679c.634.714 1.776.42 2.03-.503.634-2.099 1.015-3.317 1.48-5.667a2.77 2.77 0 0 0-.634-2.393l-12.011-14.146c-1.65-1.679 1.226-4.24 2.706-2.77l11.166 12.76c.253.294.719.168.845-.167l1.734-6.087c.254-.924.085-1.889-.549-2.645l-5.794-7.22c-1.438-1.888 1.226-4.029 2.706-2.098l4.314 5.163c.254.294.761.21.846-.168l2.495-8.647c.761-2.309 3.891-1.386 2.834 1.007l-2.369 8.605c-.084.294.762.252 1.058.168l8.247-1.931c2.283-.629 3.552 2.351 1.057 3.191l-10.192 3.4c-.55.167-.973.629-1.142 1.217l-1.861 6.506c-.127.378.254.756.634.63l17.425-4.827c1.86-.63 4.144 2.35 1.353 3.442l-19.539 5.666c-.761.252-1.396.84-1.607 1.638l-1.607 5.666c-.212.798.507 1.512 1.268 1.302l25.333-6.591c1.1-.293 2.115.756 1.734 1.847l-8.669 24.431c-.297.797.465 1.553 1.268 1.301a257 257 0 0 1 6.175-1.721M72.64.763c.212.84-.211 1.72-.888 2.182L60.798 10.04c-3.425 2.098-.507 5.54 1.946 3.945.254-.126 6.936-4.323 9.854-6.086.634-.378 1.48-.042 1.565.713l.38 2.1c.127.713-.211 1.426-.803 1.846l-7.36 4.785c-2.96 1.89-.38 5.541 2.03 4.114l6.472-4.198c.592-.377 1.268-.041 1.438.63l.296 1.511c.211 1.008-.254 2.015-1.142 2.603l-4.356 2.77c-3.637 2.015-1.438 5.919 1.438 4.198l4.102-2.56c.677-.42 1.522-.043 1.65.713l.76 4.198c.72 1.973 2.623 1.091 2.623 1.091s1.564-.294 1.438-2.35l-1.016-4.156c-.21-.756.466-1.428 1.227-1.344l4.779.714c3.341.42 3.722-4.03-.423-4.45l-5.117-.797c-1.015-.126-1.861-.882-2.115-1.931l-.38-1.511a.947.947 0 0 1 1.057-1.134l7.655 1.26c2.749.336 3.68-4.03.211-4.576l-8.67-1.427c-.719-.084-1.269-.671-1.48-1.385L78.35 7.31c-.212-.714.422-1.385 1.184-1.26 3.383.462 11.207 1.596 11.503 1.638 2.918.462 4.187-3.82.212-4.408l-12.9-2.14c-.845-.126-1.522-.798-1.649-1.596l-.296-1.385c-.127-.797.508-1.469 1.269-1.385l10.15 1.427a2.242 2.242 0 0 0 2.58-2.309l-.339-10.116c-.042-.881.846-1.511 1.65-1.217l1.65.63a2.08 2.08 0 0 1 1.437 1.846l.72 12.971c.084 4.03 4.567 3.232 4.397.294 0-.294-.296-8.143-.422-11.502-.043-.755.719-1.259 1.438-1.007l1.987.714c.677.251 1.142.84 1.184 1.595l.466 8.689c.127 3.442 4.61 3.064 4.61.294l-.423-7.724a.888.888 0 0 1 1.226-.882l1.48.504a2.6 2.6 0 0 1 1.734 2.267l.254 5.121c-.042 4.114 4.441 4.198 4.398.882l-.211-4.786c-.042-.755.719-1.343 1.48-1.091l4.06 1.427c2.115.378 2.242-1.721 2.284-1.721 0 0 .508-1.47-1.353-2.393l-4.145-1.217c-.761-.252-1.057-1.133-.507-1.721l3.002-3.736c1.988-2.644-1.649-5.247-4.102-1.889l-3.257 3.988c-.676.798-1.734 1.133-2.706.84l-1.523-.42a.916.916 0 0 1-.423-1.47l4.906-5.96c1.65-2.225-1.734-5.163-3.891-2.477l-5.582 6.717a1.76 1.76 0 0 1-1.903.587l-2.03-.63c-.719-.21-1.015-1.09-.508-1.637 2.157-2.644 7.021-8.857 7.19-9.024 1.861-2.267-1.227-5.541-3.722-2.351l-8.29 10.032c-.507.672-1.437.882-2.24.672l-1.354-.462c-.761-.252-1.057-1.175-.508-1.805l6.344-8.06c.846-1.09.508-2.686-.719-3.358L89.895-37.1a1.83 1.83 0 0 1-.338-2.98l.719-.63a2.07 2.07 0 0 1 2.326-.336l11.673 5.877c3.51 1.93 5.117-2.309 2.41-3.652-.253-.126-7.232-3.82-10.234-5.373-.677-.336-.762-1.217-.212-1.721l1.607-1.385c.592-.462 1.354-.588 1.988-.252l7.824 3.946c3.087 1.595 4.99-2.477 2.58-3.82l-6.725-3.442a.93.93 0 0 1-.211-1.511l1.184-1.008c.804-.672 1.903-.797 2.791-.336l4.568 2.309c3.552 2.099 5.921-1.721 2.96-3.358l-4.271-2.225c-.677-.378-.804-1.26-.212-1.805l3.299-2.77c1.354-1.595-.38-2.77-.38-2.77s-1.015-1.218-2.749-.043l-3.13 2.939c-.592.503-1.48.335-1.776-.378l-1.777-4.45c-1.268-3.064-5.37-1.175-3.679 2.56l1.861 4.786c.38.966.127 2.015-.635 2.729l-1.141 1.091c-.466.42-1.27.294-1.48-.336l-2.707-7.178c-1.1-2.56-5.33-1.133-4.103 2.141l3.088 8.144a1.82 1.82 0 0 1-.423 1.93l-1.523 1.47c-.507.503-1.438.335-1.734-.378-1.269-3.148-4.187-10.452-4.271-10.704-1.058-2.729-5.414-1.721-3.891 2.015l4.61 12.173c.296.797.084 1.72-.592 2.267l-.804.587c-.677.462-1.565.21-1.903-.587l-3.849-9.445c-.507-1.26-2.114-1.805-3.298-1.091l-8.586 5.247c-.676.42-1.565.041-1.776-.756l-.296-1.385c-.212-.84.211-1.721.888-2.183l10.954-7.094c3.425-2.099.507-5.54-1.946-3.946-.253.126-6.936 4.324-9.854 6.087-.634.378-1.48.042-1.565-.714l-.38-2.099c-.127-.713.211-1.427.803-1.847l7.36-4.785c2.96-1.889.38-5.54-2.03-4.114l-6.472 4.198c-.592.378-1.268.042-1.437-.63l-.297-1.51c-.211-1.008.254-2.016 1.142-2.603l4.356-2.77c3.638-2.016 1.438-5.92-1.437-4.198l-4.103 2.56c-.676.42-1.522.042-1.65-.714l-.76-4.197c-.72-1.973-2.623-1.091-2.623-1.091s-1.564.293-1.438 2.35l1.015 4.156c.212.755-.465 1.427-1.226 1.343l-4.779-.713c-3.341-.42-3.722 4.03.423 4.449l5.117.797c1.015.127 1.861.882 2.115 1.931l.38 1.512a.947.947 0 0 1-1.057 1.133l-7.655-1.26c-2.749-.335-3.68 4.03-.211 4.576l8.67 1.427c.719.084 1.269.672 1.48 1.386l.508 2.014c.21.714-.424 1.386-1.185 1.26-3.383-.462-11.207-1.595-11.503-1.637-2.918-.462-4.187 3.82-.212 4.407l12.9 2.14c.845.127 1.522.798 1.649 1.596l.296 1.385c.127.798-.508 1.47-1.269 1.386l-10.15-1.428a2.242 2.242 0 0 0-2.58 2.309l.338 10.116c.043.882-.845 1.511-1.649 1.218l-1.65-.63a2.08 2.08 0 0 1-1.437-1.847l-.72-12.97c-.084-4.03-4.567-3.233-4.398-.294 0 .293.296 8.143.423 11.501.043.756-.719 1.26-1.438 1.008l-1.987-.714a1.78 1.78 0 0 1-1.184-1.595l-.466-8.69c-.127-3.441-4.61-3.064-4.61-.293l.423 7.723a.89.89 0 0 1-1.226.882l-1.48-.504a2.6 2.6 0 0 1-1.734-2.267l-.254-5.12c.042-4.114-4.44-4.198-4.398-.882l.211 4.785c.042.756-.719 1.343-1.48 1.092l-4.06-1.428c-2.115-.377-2.242 1.721-2.284 1.721 0 0-.507 1.47 1.353 2.393l4.145 1.217c.761.252 1.057 1.134.508 1.721l-3.003 3.82c-1.988 2.645 1.65 5.247 4.102 1.89l3.257-3.989c.676-.797 1.733-1.133 2.706-.84l1.523.42c.634.21.846.966.423 1.47l-4.906 5.96c-1.65 2.225 1.734 5.164 3.89 2.477l5.583-6.716a1.76 1.76 0 0 1 1.903-.588l2.03.63c.72.21 1.015 1.091.508 1.637-2.157 2.645-7.02 8.857-7.19 9.025-1.86 2.267 1.227 5.54 3.722 2.35l8.29-10.032c.507-.671 1.437-.881 2.24-.671l1.354.461c.761.252 1.057 1.176.508 1.805l-6.344 8.06c-.846 1.091-.508 2.686.719 3.358l8.247 4.407a1.83 1.83 0 0 1 .338 2.98l-.719.63a2.07 2.07 0 0 1-2.326.336l-11.926-5.876c-3.51-1.931-5.118 2.308-2.411 3.652.254.125 7.232 3.82 10.235 5.372.676.336.76 1.218.211 1.722l-1.607 1.385c-.592.461-1.353.587-1.988.252l-7.824-3.946c-3.087-1.595-4.99 2.476-2.58 3.82L35.72.763a.93.93 0 0 1 .212 1.51l-1.185 1.008c-.803.672-1.903.798-2.791.336l-4.567-2.309C23.835-.79 21.467 3.03 24.427 4.667l4.272 2.224c.676.378.803 1.26.211 1.805l-3.299 2.77c-1.353 1.596.38 2.771.38 2.771s1.016 1.217 2.75.042l3.13-2.938c.591-.504 1.48-.336 1.776.378l1.776 4.45c1.269 3.063 5.371 1.174 3.68-2.562l-1.861-4.785c-.381-.965-.127-2.015.634-2.728l1.142-1.092c.465-.42 1.269-.293 1.48.336l2.707 7.178c1.1 2.56 5.329 1.133 4.102-2.14L44.22 2.231A1.82 1.82 0 0 1 44.643.3l1.522-1.47c.508-.503 1.438-.335 1.734.379 1.269 3.148 4.187 10.452 4.272 10.704 1.057 2.728 5.413 1.72 3.89-2.015l-4.61-12.173c-.295-.798-.084-1.721.593-2.267l1.1-.966c.634-.503 1.564-.294 1.86.42l3.849 9.445c.507 1.26 2.114 1.805 3.299 1.091l8.881-5.625c.465-.293 1.142 0 1.184.588zM155.321 57.22l14.718-6.002a5.73 5.73 0 0 0 2.41-1.93l9.558-14.189c.719-1.091 2.411-.713 2.622.588l.677 4.45a3.9 3.9 0 0 1-.592 2.812l-7.317 11.376a5.28 5.28 0 0 1-2.537 2.056l-12.815 4.954a4.12 4.12 0 0 1-3.002 0l-3.68-1.428c-1.226-.503-1.226-2.224-.042-2.686M157.774 99.785l2.115-15.657a5.3 5.3 0 0 0-.508-3.022l-7.613-15.28c-.592-1.175.593-2.434 1.819-1.973l4.229 1.637a4.2 4.2 0 0 1 2.157 1.931l6.259 12.006c.508 1.007.719 2.14.55 3.232l-2.072 13.516c-.169 1.008-.677 1.931-1.48 2.56l-3.088 2.435c-1.057.714-2.537-.125-2.368-1.385M195.837 119.514l-12.603-9.654a5.64 5.64 0 0 0-2.918-1.092l-17.129-1.133c-1.311-.084-1.818-1.721-.803-2.519l3.51-2.812c.761-.63 1.776-.924 2.749-.882l13.576.63c1.142.042 2.199.462 3.087 1.175l10.742 8.564c.804.629 1.354 1.553 1.481 2.56l.592 3.862c.211 1.217-1.269 2.057-2.284 1.301M182.726 60.453l-1.691-1.973c-.846-1.007-.973-2.476-.212-3.568l5.54-8.479c.973-1.511 3.088-1.805 4.483-.672l7.613 6.255a3.05 3.05 0 0 1 .93 3.358l-.803 2.225a2.77 2.77 0 0 1-2.876 1.805 23.7 23.7 0 0 0-4.779.126c-1.903.252-3.468.965-4.695 1.595-1.184.588-2.664.336-3.51-.672M174.479 77.748l-2.537.461c-1.311.252-2.622-.42-3.257-1.595l-4.652-9.025a3.037 3.037 0 0 1 1.649-4.197l9.305-3.443a3.02 3.02 0 0 1 3.383.882l1.523 1.805c.803.965.888 2.35.126 3.4-.676 1.007-1.564 2.393-2.283 4.156-.677 1.679-.931 3.484-.973 4.827s-.973 2.477-2.284 2.728M185.095 94.37l-.888 2.435a3.01 3.01 0 0 1-3.003 1.973l-10.193-.546c-1.818-.084-3.129-1.72-2.833-3.526l1.649-9.696a3.05 3.05 0 0 1 2.495-2.477l2.326-.378c1.269-.21 2.496.42 3.046 1.553a19.7 19.7 0 0 0 2.495 4.03c1.099 1.427 2.58 2.519 3.721 3.232 1.142.756 1.65 2.141 1.185 3.4M231.785 96.427l-14.718 6.003a5.7 5.7 0 0 0-2.41 1.931l-9.558 14.188c-.719 1.091-2.411.713-2.622-.588l-.677-4.45a3.9 3.9 0 0 1 .592-2.812l7.317-11.376a5.28 5.28 0 0 1 2.537-2.056l12.815-4.954a4.12 4.12 0 0 1 3.002 0l3.68 1.428c1.226.503 1.226 2.224.042 2.686M229.332 53.863l-2.114 15.657a5.3 5.3 0 0 0 .507 3.022l7.613 15.28c.592 1.175-.592 2.434-1.819 1.973l-4.229-1.638a4.2 4.2 0 0 1-2.157-1.93l-6.259-12.006c-.508-1.007-.719-2.14-.55-3.232l2.072-13.516c.169-1.008.677-1.931 1.481-2.56l3.087-2.435c1.057-.714 2.537.125 2.368 1.385"/><path stroke="#F8F4E9" stroke-linecap="round" stroke-linejoin="round" stroke-miterlimit="10" stroke-width="1.5" d="m177.482-9.353-6.598 10.872c-.719 1.175-.465 2.686.592 3.61l9.093 7.85c.719.587 1.142 1.426 1.269 2.35l.338 2.644c.127.798-.846 1.344-1.48.84l-7.19-5.415c-2.664-1.26-5.794 2.518-2.918 5.079l9.262 6.339c1.354.923 1.734 2.77.804 4.113l-9.262 13.978c-.761 1.134-2.411 1.176-3.257.084l-3.087-4.113a6.2 6.2 0 0 1-1.226-3.904l.549-11.544c.085-1.553-1.099-2.938-2.664-3.148l-12.984-1.637c-1.776-.21-3.383 1.133-3.425 2.896l-.381 12.51c-.042 1.468 1.015 2.77 2.453 3.064l10.404 2.014c1.226.252 2.368.924 3.087 1.973l3.257 4.492c.888 1.26.38 3.022-1.058 3.568l-13.702 5.373a2.66 2.66 0 0 1-3.341-1.26l-5.118-10.032c-2.072-3.652-6.301-.42-5.159 2.057l3.341 6.926c.423.882-.423 1.805-1.354 1.511l-1.776-.63a5.8 5.8 0 0 1-3.003-2.476l-5.159-8.899a3.7 3.7 0 0 0-4.356-1.637l-11.546 3.862c-1.438.504-2.073 2.182-1.354 3.484l6.387 11.082a2.83 2.83 0 0 0 3.425 1.3l11.419-3.903a4 4 0 0 1 2.707.084l2.495 1.05a.934.934 0 0 1 0 1.72l-8.289 3.443c-2.411 1.637-.677 6.254 2.96 5.079l10.15-4.828c1.481-.713 3.257-.084 4.018 1.386l7.57 14.985c.635 1.218-.169 2.687-1.522 2.855l-5.117.63a6.16 6.16 0 0 1-4.018-.924l-9.812-6.213c-1.353-.84-3.087-.546-4.06.714l-7.951 10.368a2.96 2.96 0 0 0 .804 4.366l10.742 6.59a3.01 3.01 0 0 0 3.891-.588l6.936-7.933a4.93 4.93 0 0 1 3.256-1.68l5.54-.545c1.565-.168 2.834 1.175 2.58 2.686l-2.157 14.44a2.62 2.62 0 0 1-2.749 2.225l-11.334-.63c-4.229-.042-3.51 5.205-.761 5.457l7.697.588c.973.084 1.353 1.301.634 1.931l-1.438 1.217c-1.015.882-2.326 1.343-3.679 1.343h-10.319c-1.734 0-3.257 1.218-3.595 2.939l-2.411 11.963c-.296 1.469.804 2.813 2.284 2.896l12.645.504c1.396.042 2.58-.923 2.876-2.308l2.326-11.754a3.56 3.56 0 0 1 1.438-2.267l2.157-1.637c.677-.503 1.607.042 1.48.84l-1.142 8.857c.212 2.896 5.118 3.736 5.921-.042l.888-11.124c.127-1.637 1.565-2.854 3.215-2.77l16.832.965c1.353.084 2.241 1.469 1.692 2.729l-2.03 4.701c-.55 1.301-1.565 2.351-2.792 3.022l-10.319 5.289a3 3 0 0 0-1.396 3.862l5.075 12.005c.677 1.637 2.665 2.351 4.23 1.47l11.122-5.919c1.312-.714 1.904-2.225 1.438-3.652l-3.468-9.948c-.422-1.176-.338-2.477.17-3.652l2.283-5.038c.635-1.427 2.453-1.847 3.638-.881l11.545 9.067a2.596 2.596 0 0 1 .55 3.484l-6.217 9.403c-2.157 3.61 2.791 5.624 4.356 3.4l4.356-6.339c.55-.797 1.819-.545 1.988.42l.338 1.847a5.5 5.5 0 0 1-.676 3.82l-5.16 8.899c-.888 1.511-.55 3.4.761 4.575l9.178 7.64c1.226 1.007 3.087.714 3.891-.63l6.259-10.284c.719-1.175.465-2.686-.592-3.61l-9.093-7.849c-.719-.588-1.142-1.428-1.269-2.351l-.338-2.645c-.127-.797.846-1.343 1.48-.839l7.19 5.415c2.664 1.259 5.794-2.519 2.918-5.079l-9.262-6.339c-1.353-.923-1.734-2.77-.804-4.114l9.262-13.978c.762-1.133 2.411-1.175 3.257-.084l3.087 4.114a6.22 6.22 0 0 1 1.227 3.904l-.55 11.543c-.085 1.553 1.099 2.939 2.664 3.149l12.984 1.637c1.776.21 3.383-1.134 3.426-2.897l.38-12.509c.042-1.469-1.015-2.77-2.453-3.064l-10.404-2.015c-1.226-.252-2.368-.923-3.087-1.973l-3.256-4.491c-.889-1.259-.381-3.023 1.057-3.568l13.703-5.373a2.66 2.66 0 0 1 3.341 1.259l5.117 10.032c2.072 3.652 6.301.42 5.16-2.056l-3.341-6.926c-.423-.882.422-1.805 1.353-1.512l1.776.63a5.8 5.8 0 0 1 3.003 2.477l5.16 8.899a3.7 3.7 0 0 0 4.356 1.637l11.545-3.862c1.438-.504 2.073-2.183 1.354-3.484l-6.429-11.082a2.83 2.83 0 0 0-3.425-1.301l-11.419 3.904a4 4 0 0 1-2.707-.084l-2.495-1.05a.934.934 0 0 1 0-1.72l8.289-3.443c2.411-1.637.677-6.254-2.96-5.079l-10.15 4.827c-1.481.714-3.257.084-4.018-1.385l-7.571-14.986c-.634-1.217.17-2.686 1.523-2.854l5.117-.63a6.16 6.16 0 0 1 4.018.924l9.812 6.212c1.353.84 3.087.546 4.06-.713l7.909-10.368a2.96 2.96 0 0 0-.804-4.366l-10.742-6.59a3.01 3.01 0 0 0-3.891.587l-6.936 7.934a4.94 4.94 0 0 1-3.256 1.679l-5.541.546c-1.565.168-2.833-1.176-2.58-2.687l2.157-14.44a2.624 2.624 0 0 1 2.749-2.224l11.335.63c4.229.041 3.51-5.206.761-5.458l-7.697-.587c-.973-.084-1.354-1.302-.635-1.931l1.438-1.218a5.82 5.82 0 0 1 3.68-1.343h10.319c1.734 0 3.256-1.217 3.595-2.938l2.41-11.964c.296-1.469-.803-2.812-2.283-2.896l-12.646-.504c-1.395-.042-2.58.924-2.876 2.31L242.4 33.63a3.55 3.55 0 0 1-1.438 2.267l-2.156 1.637c-.677.504-1.608-.042-1.481-.84l1.142-8.856c-.211-2.897-5.117-3.736-5.921.042l-.888 11.124c-.127 1.637-1.565 2.854-3.214 2.77l-16.832-.965c-1.354-.084-2.242-1.47-1.692-2.729l2.03-4.701c.55-1.302 1.565-2.351 2.791-3.023l10.32-5.289c1.395-.713 2.03-2.392 1.395-3.861L221.381 9.2c-.677-1.637-2.664-2.35-4.229-1.469l-11.123 5.919c-1.311.713-1.903 2.224-1.438 3.652l3.468 9.948c.423 1.175.338 2.477-.169 3.652l-2.284 5.037c-.634 1.427-2.453 1.847-3.637.882l-11.546-9.067a2.596 2.596 0 0 1-.549-3.484l6.216-9.403c2.157-3.61-2.791-5.625-4.356-3.4l-4.356 6.338c-.55.798-1.818.546-1.987-.42l-.339-1.846a5.48 5.48 0 0 1 .677-3.82l5.16-8.9c.888-1.51.549-3.4-.762-4.575l-9.431-8.101a2.087 2.087 0 0 0-3.214.504"/><path stroke="#F8F4E9" stroke-linecap="round" stroke-linejoin="round" stroke-miterlimit="10" stroke-width="1.5" d="m191.269 34.134 12.603 9.655a5.64 5.64 0 0 0 2.918 1.091l17.129 1.133c1.311.084 1.818 1.721.803 2.519l-3.51 2.812c-.761.63-1.776.924-2.749.882l-13.576-.63c-1.142-.042-2.199-.462-3.087-1.175l-10.742-8.563c-.804-.63-1.354-1.553-1.48-2.56l-.593-3.863c-.211-1.217 1.269-2.057 2.284-1.301M204.38 93.195l1.691 1.973c.846 1.007.973 2.476.212 3.568l-5.54 8.479c-.973 1.511-3.088 1.805-4.483.672l-7.613-6.255a3.05 3.05 0 0 1-.93-3.358l.803-2.225a2.77 2.77 0 0 1 2.876-1.805c1.227.084 2.876.126 4.779-.126 1.819-.252 3.468-.965 4.695-1.595 1.184-.587 2.664-.336 3.51.672M212.627 75.9l2.537-.461c1.311-.252 2.622.42 3.257 1.595l4.61 9.025a3.036 3.036 0 0 1-1.65 4.198l-9.304 3.442a3.02 3.02 0 0 1-3.383-.882l-1.523-1.805c-.803-.965-.888-2.35-.127-3.4.677-1.007 1.565-2.393 2.284-4.156.677-1.679.93-3.484.973-4.827a2.874 2.874 0 0 1 2.326-2.728M202.011 59.278l.889-2.435a3.01 3.01 0 0 1 3.002-1.973l10.193.546c1.818.084 3.129 1.721 2.833 3.526l-1.649 9.697a3.05 3.05 0 0 1-2.495 2.476l-2.326.378c-1.269.21-2.496-.42-3.045-1.553a19.8 19.8 0 0 0-2.496-4.03c-1.099-1.427-2.58-2.518-3.721-3.232-1.142-.756-1.65-2.14-1.185-3.4M191.565 71.745l-4.229-5.037c-.465-.546-.296-1.343.338-1.721a11.77 11.77 0 0 1 7.402-1.301c.718.126 1.141.84.888 1.51l-2.453 6.171a1.128 1.128 0 0 1-1.946.378M188.097 76.195l-6.47 1.133a1.148 1.148 0 0 1-1.354-1.133c0-1.554.423-4.282 2.58-7.01a1.168 1.168 0 0 1 1.776 0l4.187 5.204c.55.672.169 1.68-.719 1.806M190.423 81.232l-2.283 6.128c-.254.672-1.058.924-1.65.588-1.353-.798-3.552-2.519-4.821-5.709-.254-.672.169-1.427.888-1.511l6.598-1.008c.888-.126 1.564.672 1.268 1.512M195.498 82.449l4.23 5.037c.465.546.296 1.343-.339 1.721a11.77 11.77 0 0 1-7.401 1.302c-.719-.126-1.142-.84-.888-1.512l2.453-6.17c.296-.84 1.396-1.05 1.945-.378M199.009 77.79l6.471-1.134a1.147 1.147 0 0 1 1.353 1.133c0 1.554-.423 4.282-2.58 7.01a1.168 1.168 0 0 1-1.776 0l-4.187-5.205c-.507-.63-.127-1.637.719-1.804M197.148 72.627l2.284-6.129c.253-.672 1.057-.924 1.649-.588 1.353.798 3.553 2.519 4.821 5.71.254.67-.169 1.426-.888 1.51l-6.597 1.008c-.888.126-1.565-.672-1.269-1.512M186.321 2.862l-2.411 4.113a2.382 2.382 0 0 1-3.594.588l-3.638-3.106c-.845-.714-1.057-1.973-.507-2.939l2.411-4.24c.718-1.3 2.495-1.594 3.637-.587l3.679 3.232c.761.756.973 1.973.423 2.939M158.408 27.795v3.568c0 1.092-1.015 1.931-2.114 1.721l-3.553-.671c-.846-.168-1.438-.882-1.438-1.721l-.042-3.652c0-1.133 1.015-1.973 2.114-1.721l3.595.713c.846.21 1.481.924 1.438 1.763M132.948 82.281l3.088 1.805c.972.546 1.184 1.847.465 2.645l-2.326 2.728c-.55.63-1.48.797-2.199.378l-3.172-1.805c-.973-.546-1.184-1.847-.466-2.687l2.411-2.728c.55-.63 1.48-.756 2.199-.336M168.728 132.275l3.129-1.763c.973-.546 2.199-.084 2.538.965l1.184 3.358a1.74 1.74 0 0 1-.761 2.099l-3.172 1.847c-.973.588-2.242.084-2.58-.965l-1.142-3.442c-.254-.84.085-1.721.804-2.099M229.29 126.608v-3.568c0-1.091 1.015-1.931 2.114-1.721l3.553.672a1.754 1.754 0 0 1 1.438 1.721l.042 3.652c0 1.133-1.015 1.972-2.114 1.721l-3.595-.714c-.846-.21-1.438-.923-1.438-1.763M253.862 71.2l-3.088-1.806c-.972-.546-1.184-1.847-.465-2.644l2.326-2.729c.55-.63 1.48-.797 2.199-.378l3.172 1.805c.973.546 1.184 1.847.465 2.687l-2.41 2.728c-.508.63-1.438.798-2.199.336M218.717 22.506l-3.13 1.763c-.973.546-2.199.084-2.537-.965l-1.185-3.358a1.74 1.74 0 0 1 .762-2.1L215.799 16c.972-.588 2.241-.084 2.579.965l1.142 3.442a1.81 1.81 0 0 1-.803 2.1M125.251 45.93l2.369 4.155c.718 1.26.126 2.897-1.269 3.358l-4.525 1.595a2.39 2.39 0 0 1-2.834-1.007l-2.495-4.198a2.33 2.33 0 0 1 1.268-3.4l4.653-1.553c1.141-.378 2.283.084 2.833 1.05M132.906 120.144l4.821.042a2.364 2.364 0 0 1 2.327 2.77l-.889 4.701a2.34 2.34 0 0 1-2.283 1.889l-4.906.042c-1.523 0-2.622-1.343-2.326-2.812l.972-4.744a2.345 2.345 0 0 1 2.284-1.888M200.996 151.206l2.411-4.113a2.382 2.382 0 0 1 3.594-.588l3.638 3.106c.846.714 1.057 1.973.507 2.939l-2.41 4.239c-.719 1.302-2.496 1.595-3.638.588l-3.679-3.232c-.803-.756-1.015-1.973-.423-2.939M261.939 107.845l-2.368-4.156c-.719-1.259-.127-2.896 1.269-3.358l4.525-1.595a2.39 2.39 0 0 1 2.834 1.007l2.495 4.198a2.33 2.33 0 0 1-1.269 3.4l-4.652 1.553a2.37 2.37 0 0 1-2.834-1.049M254.411 33.588l-4.821-.042a2.363 2.363 0 0 1-2.326-2.77l.888-4.701a2.345 2.345 0 0 1 2.284-1.89l4.906-.041c1.522 0 2.622 1.343 2.326 2.812l-.973 4.743a2.3 2.3 0 0 1-2.284 1.89M162.003 194.106a47 47 0 0 0-6.682-.755c1.565-1.428 3.13-3.065 4.652-4.828 3.045-3.568 5.456-7.345 6.851-10.578 2.2-5.163 1.015-7.639-.338-8.773-4.568-3.862-13.533 4.24-18.143 9.613a45.5 45.5 0 0 0-4.018 5.373 51 51 0 0 0-1.861-6.423c-1.607-4.407-3.637-8.353-5.794-11.165-3.426-4.45-6.132-4.702-7.782-4.114-5.625 2.015-3.087 13.768-.676 20.359.803 2.182 1.691 4.239 2.664 6.128a57 57 0 0 0-6.513-1.595c-4.652-.839-9.135-1.049-12.645-.588-5.625.714-7.148 2.939-7.486 4.66-.296 1.721.381 4.323 5.371 6.968 3.13 1.637 7.444 2.98 12.053 3.82 2.284.419 4.568.671 6.683.755-1.777 1.595-3.384 3.316-4.653 4.786-3.045 3.568-5.455 7.345-6.851 10.578-2.199 5.163-1.015 7.639.338 8.773 1.481 1.259 3.426 1.259 5.498.503 4.399-1.553 9.516-6.464 12.603-10.074a45.5 45.5 0 0 0 4.018-5.373 51 51 0 0 0 1.861 6.423c1.607 4.407 3.637 8.353 5.794 11.165 3.426 4.45 6.132 4.702 7.782 4.114 5.625-2.015 3.087-13.768.677-20.359-.804-2.182-1.692-4.239-2.665-6.128a57 57 0 0 0 6.513 1.595c4.652.839 9.135 1.049 12.645.588a16.7 16.7 0 0 0 3.511-.798c2.833-1.007 3.764-2.561 3.975-3.862 1.142-5.876-10.404-9.528-17.382-10.788m-10.108-12.341c5.498-6.464 10.108-8.857 11.546-8.983.127 1.427-1.48 6.339-6.978 12.803s-10.108 8.857-11.546 8.983c0-.168 0-.42.042-.714 0-.084.043-.168.043-.251.38-2.099 2.283-6.423 6.893-11.838m-21.4-14.859c1.311.587 4.779 4.449 7.655 12.383 2.876 7.975 2.665 13.138 2.03 14.398-1.311-.588-4.779-4.45-7.655-12.384-2.875-7.975-2.664-13.138-2.03-14.397m-8.035 30.81c-8.416-1.511-12.772-4.281-13.576-5.457 1.184-.839 6.259-1.889 14.633-.377 8.416 1.511 12.772 4.281 13.576 5.456-.169.084-.381.21-.634.336-.085.042-.127.042-.212.084-1.988.672-6.724 1.218-13.787-.042m9.304 16.875c-5.498 6.464-10.108 8.857-11.546 8.983-.126-1.427 1.481-6.339 6.979-12.803s10.107-8.857 11.545-8.983c0 .168 0 .42-.042.714 0 .084-.042.167-.042.251-.381 2.057-2.284 6.381-6.894 11.838m21.4 14.859c-1.311-.587-4.779-4.449-7.655-12.383-2.876-7.975-2.664-13.138-2.03-14.398 1.311.588 4.779 4.45 7.655 12.384 2.876 7.933 2.664 13.096 2.03 14.397m6.978-25.018c-8.416-1.511-12.772-4.281-13.576-5.456 1.185-.84 6.26-1.889 14.634-.378 8.416 1.511 12.772 4.281 13.575 5.457-1.142.839-6.217 1.889-14.633.377M118.907 267.061c-.845-.126-1.226-1.091-.719-1.721l.296-.378c2.115-2.686 4.779-4.953 7.74-6.716 1.142-.672 2.115-1.511 2.707-2.225 1.522-1.931 1.141-4.701-.804-6.212s-4.737-1.134-6.259.797c-.465.588-.931 1.596-1.269 2.729-1.057 3.484-2.707 6.842-4.906 9.738l-.338.462c-.508.672-1.607.546-1.903-.252l-.212-.545c-1.269-3.275-1.861-6.759-1.945-10.243-.043-1.301-.254-2.602-.592-3.442a4.45 4.45 0 0 0-5.794-2.434c-2.284.923-3.384 3.484-2.453 5.75.338.756 1.099 1.805 2.03 2.729 2.241 2.267 4.06 4.869 5.244 7.808l.55 1.301c.338.755-.339 1.595-1.142 1.469l-.635-.084c-3.383-.462-6.597-1.553-9.6-3.19-1.184-.63-2.41-1.092-3.34-1.218-2.454-.335-4.695 1.344-4.991 3.778a4.36 4.36 0 0 0 3.806 4.954c.761.084 1.86 0 3.003-.294 3.552-.798 7.189-1.05 10.826-.588l.466.084c.846.126 1.226 1.091.719 1.721l-.339.462c-2.114 2.686-4.779 4.953-7.739 6.716-1.142.672-2.115 1.511-2.707 2.225-1.522 1.931-1.142 4.701.804 6.212s4.736 1.134 6.259-.797c.465-.588.93-1.595 1.269-2.729 1.057-3.442 2.664-6.716 4.906-9.57l.253-.336c.508-.672 1.565-.504 1.861.252l.212.545c1.311 3.149 1.945 6.507 2.03 9.949.042 1.301.253 2.602.592 3.442a4.45 4.45 0 0 0 5.794 2.435c2.284-.924 3.383-3.485 2.453-5.751-.296-.714-.931-1.595-1.777-2.435-2.537-2.728-4.694-5.793-6.216-9.193l-.212-.42c-.338-.797.296-1.637 1.142-1.511l.761.126c3.468.546 6.767 1.721 9.854 3.4 1.142.63 2.369 1.092 3.299 1.218 2.453.336 4.694-1.344 4.991-3.778a4.357 4.357 0 0 0-3.807-4.953c-.761-.084-1.861 0-3.002.293-3.511.798-7.148 1.05-10.743.504zM76.616 109.146c-.212-2.729-2.115-4.87-4.526-5.625-.634-.21-1.142-.756-1.226-1.385l-.423-3.065a4.06 4.06 0 0 0 1.184-1.595 9.26 9.26 0 0 0 7.147-6.002 3.9 3.9 0 0 0 2.538-.798l2.749 1.133c.592.252 1.015.798 1.057 1.428a6.41 6.41 0 0 0 4.399 5.54c3.087 1.05 6.555-.461 7.95-3.4a6.425 6.425 0 0 0-3.425-8.689 6.5 6.5 0 0 0-6.682 1.05c-.508.42-1.184.546-1.776.294l-2.75-1.134c-.126-.923-.634-1.805-1.353-2.434a9.12 9.12 0 0 0-1.1-8.48 4.13 4.13 0 0 0 .635-2.602s1.396-1.05 2.326-1.805a1.7 1.7 0 0 1 1.776-.168A6.56 6.56 0 0 0 92.18 70.4c2.453-2.14 2.876-5.876 1.015-8.52-2.157-3.023-6.386-3.653-9.304-1.428-1.988 1.511-2.834 3.988-2.41 6.296.126.63-.128 1.26-.635 1.68-.973.755-2.368 1.805-2.368 1.805a4.35 4.35 0 0 0-1.777-.252 9.45 9.45 0 0 0-9.135-3.4 4.1 4.1 0 0 0-1.819-1.553s-.253-1.721-.422-2.897c-.085-.63.169-1.26.719-1.595 2.072-1.427 3.214-3.946 2.664-6.59-.634-3.19-3.68-5.415-6.936-5.121-3.722.335-6.386 3.651-5.879 7.304a6.45 6.45 0 0 0 4.272 5.205c.592.21 1.057.755 1.142 1.385.169 1.175.38 2.938.38 2.938a3.88 3.88 0 0 0-1.353 2.099c-3.256.504-5.836 2.686-7.063 5.499-.888 0-1.734.252-2.453.797 0 0-1.607-.671-2.749-1.091-.592-.252-1.015-.797-1.057-1.427-.211-2.477-1.86-4.701-4.398-5.583-3.088-1.05-6.556.462-7.951 3.4a6.425 6.425 0 0 0 3.425 8.69 6.42 6.42 0 0 0 6.683-1.092c.507-.42 1.184-.546 1.776-.294 1.142.462 2.749 1.133 2.749 1.133.084.672.38 1.302.803 1.847-.888 2.267-.888 4.702.085 6.968.338.756.719 1.47 1.227 2.1.042.083.126.167.21.251-.422.714-.549 1.553-.464 2.393l-2.369 1.805a1.7 1.7 0 0 1-1.776.168 6.56 6.56 0 0 0-7.063 1.007c-2.453 2.14-2.876 5.877-1.015 8.521 2.157 3.023 6.386 3.652 9.305 1.427 1.987-1.511 2.833-3.987 2.41-6.296-.127-.63.127-1.26.635-1.679l2.368-1.805a3.9 3.9 0 0 0 2.58.126c2.072 2.603 5.244 3.778 8.331 3.484.423.714 1.1 1.26 1.861 1.595l.465 3.358c.085.588-.169 1.217-.634 1.553-1.819 1.344-2.876 3.61-2.538 6.003.508 3.652 3.934 6.128 7.613 5.457 3.214-.63 5.54-3.652 5.287-6.926M60.502 57.683c-1.353-1.05-1.65-2.98-.592-4.324s3.003-1.637 4.356-.588c1.354 1.05 1.65 2.98.592 4.324-1.015 1.343-2.96 1.637-4.356.588M41.81 74.809c-1.565.672-3.425-.084-4.06-1.637-.677-1.553.085-3.4 1.65-4.03 1.564-.671 3.425.084 4.06 1.637.676 1.553-.043 3.358-1.65 4.03m28.336 11.334 4.864 1.973c.084.671.38 1.3.803 1.847a6.09 6.09 0 0 1-4.356 4.197c-.423-.84-1.142-1.469-1.988-1.847l-.719-5.205c-.042-.672.72-1.26 1.396-.965m20.258 3.694c1.565-.672 3.425.084 4.06 1.637.677 1.553-.085 3.4-1.65 4.03-1.564.671-3.425-.085-4.06-1.638-.676-1.553.043-3.358 1.65-4.03M78.35 83.624c-.677.084-1.27.378-1.777.756l-4.863-1.973a.986.986 0 0 1-.212-1.68l4.187-3.19a4 4 0 0 0 1.988.252 5.97 5.97 0 0 1 .677 5.835m9.938-21.072c1.692.21 2.918 1.763 2.707 3.442s-1.776 2.896-3.468 2.686-2.918-1.763-2.707-3.442c.212-1.72 1.777-2.938 3.468-2.686m-14.421 9.067c-.593.797-.804 1.805-.72 2.728l-4.186 3.19c-.592.462-1.48.084-1.565-.63l-.72-5.204a3.8 3.8 0 0 0 1.312-1.931c2.115-.42 4.356.21 5.879 1.847m-11.8 6.884-4.864-1.973a4.4 4.4 0 0 0-.888-1.973c.804-1.889 2.496-3.358 4.695-3.694a3.84 3.84 0 0 0 1.734 1.427l.719 5.206c.042.713-.72 1.3-1.396 1.007m-9.008 2.519c.93.041 1.818-.252 2.58-.798l4.863 1.973a.986.986 0 0 1 .212 1.679l-4.187 3.19c-.72-.294-1.523-.336-2.284-.168-.423-.504-.803-1.05-1.057-1.679-.508-1.343-.592-2.812-.127-4.197m-9.135 21.072c-1.692-.21-2.918-1.763-2.707-3.442s1.776-2.897 3.468-2.687 2.918 1.763 2.707 3.442c-.212 1.721-1.777 2.939-3.468 2.687m14.844-9.613c.38-.713.38-1.385.296-2.183l4.187-3.19c.592-.462 1.48-.084 1.565.63l.72 5.205a4.04 4.04 0 0 0-1.312 1.889c-2.072.168-4.145-.672-5.456-2.35m9.474 19.645c-1.354-1.049-1.65-2.98-.592-4.323s3.002-1.638 4.356-.588c1.353 1.049 1.65 2.98.592 4.323-1.015 1.386-3.003 1.637-4.356.588M228.867 359.242c-.381-1.386-1.692-2.141-3.13-2.351l-6.513-2.141a6.4 6.4 0 0 0 .888-4.24c-.169-1.133-.634-2.224-1.311-3.19l6.979-2.266c1.649-.462 2.749-.924 3.129-2.351l.465-1.679c.466-1.679-.549-3.4-2.241-3.862l-1.692-.462c-1.395-.378-2.41.294-3.595 1.511l-5.201 4.744a7.53 7.53 0 0 0-3.003-2.855 8.1 8.1 0 0 0-3.595-.839l1.522-6.968c.508-1.973.55-2.855-.465-3.862l-1.226-1.217c-1.227-1.218-3.257-1.218-4.483 0l-1.227 1.217c-1.015 1.007-1.057 2.309-.465 5.121l1.311 5.793a7.3 7.3 0 0 0-4.06 1.091 7.7 7.7 0 0 0-2.368 2.435l-4.822-4.408c-1.141-1.091-2.199-1.889-3.594-1.511l-1.692.462c-1.692.462-2.707 2.183-2.242 3.862l.466 1.679c.38 1.385 1.522 1.847 3.129 2.35l6.302 1.973c-.677 1.05-.973 2.393-.846 3.862a8.84 8.84 0 0 0 1.142 3.568l-7.021 2.393c-1.48.21-2.749.923-3.129 2.35l-.465 1.68c-.466 1.679.549 3.4 2.241 3.861l1.692.462c1.395.378 2.453-.42 3.595-1.511l5.075-4.743c.634.923 1.564 1.721 2.749 2.35 1.311.672 2.749 1.05 4.102 1.05l-1.523 6.8c-.296 1.679-.549 2.854.466 3.862l1.226 1.217c1.227 1.217 3.257 1.217 4.483 0l1.227-1.217c1.015-1.008.761-2.603.465-3.862l-1.523-6.884c1.692-.042 3.426-.672 4.822-1.805.634-.504 1.184-1.092 1.564-1.721l5.414 4.743c1.099 1.007 2.199 1.889 3.595 1.511l1.691-.462c1.692-.461 2.707-2.182 2.242-3.861zm-21.611-4.282c-2.411 0-4.399-1.973-4.399-4.366s1.988-4.365 4.399-4.365 4.398 1.973 4.398 4.365-1.988 4.366-4.398 4.366"/><path stroke="#F8F4E9" stroke-dasharray="1.61 1.61" stroke-linecap="round" stroke-linejoin="round" stroke-width="1.5" d="M207.256 358.276c4.227 0 7.654-3.4 7.654-7.597s-3.427-7.598-7.654-7.598-7.655 3.4-7.655 7.598c0 4.197 3.427 7.597 7.655 7.597"/><path stroke="#F8F4E9" stroke-linecap="round" stroke-linejoin="round" stroke-width="1.5" d="M194.99 339.597c.085-.084.128-.168.213-.252"/><path stroke="#F8F4E9" stroke-dasharray="1.44 1.44" stroke-linecap="round" stroke-linejoin="round" stroke-width="1.5" d="M196.556 338.001c1.649-1.427 3.595-2.476 5.752-3.19"/><path stroke="#F8F4E9" stroke-linecap="round" stroke-linejoin="round" stroke-width="1.5" d="M203.237 334.56c.127-.042.212-.042.339-.084M191.439 356.052c-.043-.126-.085-.21-.085-.336"/><path stroke="#F8F4E9" stroke-dasharray="1.42 1.42" stroke-linecap="round" stroke-linejoin="round" stroke-width="1.5" d="M190.931 353.911c-.169-.966-.212-1.973-.212-3.065 0-1.175.127-2.266.339-3.4"/><path stroke="#F8F4E9" stroke-linecap="round" stroke-linejoin="round" stroke-width="1.5" d="M191.269 346.565c.043-.126.043-.21.085-.336M203.703 367.386c-.127-.043-.212-.043-.339-.085"/><path stroke="#F8F4E9" stroke-dasharray="1.38 1.38" stroke-linecap="round" stroke-linejoin="round" stroke-width="1.5" d="M201.588 366.798c-2.03-.756-3.722-1.931-5.286-3.443"/><path stroke="#F8F4E9" stroke-linecap="round" stroke-linejoin="round" stroke-width="1.5" d="M195.626 362.725a1.1 1.1 0 0 1-.213-.251M220.113 362.348a1.1 1.1 0 0 0-.212.252"/><path stroke="#F8F4E9" stroke-dasharray="1.46 1.46" stroke-linecap="round" stroke-linejoin="round" stroke-width="1.5" d="M218.463 363.901c-1.734 1.385-3.722 2.476-5.921 3.106"/><path stroke="#F8F4E9" stroke-linecap="round" stroke-linejoin="round" stroke-width="1.5" d="M211.611 367.259c-.127.042-.211.042-.338.085M223.919 345.851c.042.126.085.21.085.336"/><path stroke="#F8F4E9" stroke-dasharray="1.48 1.48" stroke-linecap="round" stroke-linejoin="round" stroke-width="1.5" d="M224.469 348.076c.169.881.211 1.805.211 2.77 0 1.512-.085 2.687-.423 3.946"/><path stroke="#F8F4E9" stroke-linecap="round" stroke-linejoin="round" stroke-width="1.5" d="M223.962 355.758c-.043.084-.085.209-.128.293M211.104 334.35c.127.042.212.042.339.084"/><path stroke="#F8F4E9" stroke-dasharray="1.5 1.5" stroke-linecap="round" stroke-linejoin="round" stroke-width="1.5" d="M213.346 334.937c2.241.756 4.187 1.889 5.878 3.526"/><path stroke="#F8F4E9" stroke-linecap="round" stroke-linejoin="round" stroke-width="1.5" d="M219.943 339.177c.085.084.17.168.212.252"/><path stroke="#F8F4E9" stroke-linecap="round" stroke-linejoin="round" stroke-miterlimit="10" stroke-width="1.5" d="M58.345 331.159c.973-1.427.38-2.77-.296-4.659l-1.988-4.827c-.55-1.344.042-2.855 1.311-3.568.761-.42 1.48-1.008 2.115-1.679.296-.336.55-.714.803-1.092a2.823 2.823 0 0 1 3.849-.923l4.737 2.854c1.86 1.134 3.002 1.763 4.567 1.008l1.903-.924a3.726 3.726 0 0 0 1.777-5.037l-.93-1.889c-.762-1.553-2.496-1.637-4.23-2.057l-5.413-.671c-1.438-.168-2.538-1.428-2.496-2.855a8 8 0 0 0-.253-2.435c-.17-.671-.296-1.301-.508-1.93a2.754 2.754 0 0 1 1.269-3.275l4.779-2.77c1.438-.84 3.045-1.679 3.172-3.442l.169-2.099a3.744 3.744 0 0 0-3.51-4.03l-2.115-.168c-1.734-.126-3.13 1.134-5.033 3.568l-2.157 3.191c-.845 1.259-2.495 1.553-3.806.797a12.2 12.2 0 0 0-2.537-1.091c-.423-.126-.846-.21-1.227-.294-1.395-.21-2.41-1.343-2.453-2.729v-4.953c0-1.889.042-3.484-1.395-4.449l-1.734-1.176c-1.734-1.175-4.103-.755-5.287.966l-1.184 1.721c-.973 1.427-.254 2.77.296 4.659l1.945 4.534a2.816 2.816 0 0 1-1.184 3.526 9.6 9.6 0 0 0-1.86 1.427 9 9 0 0 0-1.143 1.385 2.85 2.85 0 0 1-3.806.882l-5.075-2.981c-1.522-.839-3.003-1.763-4.567-1.007l-1.904.923a3.727 3.727 0 0 0-1.776 5.038l.93 1.889c.762 1.553 2.369 1.763 4.23 2.056l5.498.546c1.395.126 2.495 1.259 2.537 2.645 0 .629.127 1.259.254 1.931.17.797.465 1.553.804 2.266.634 1.344.084 2.939-1.227 3.652l-4.737 2.519c-1.86.881-3.045 1.679-3.171 3.442l-.17 2.099a3.743 3.743 0 0 0 3.51 4.029l2.115.168c1.734.126 2.75-1.007 3.891-2.602l3.299-4.366c.888-1.175 2.537-1.511 3.764-.755a9.7 9.7 0 0 0 3.425 1.301c.127.042.254.042.339.042 1.395.21 2.453 1.427 2.41 2.812l-.084 5.793c-.042 1.931-.042 3.484 1.396 4.45l1.734 1.175c1.734 1.175 4.102.755 5.286-.966zm-1.311-16.664c-.592.671-2.368 1.763-4.018 1.679l-.973-3.484a1.634 1.634 0 0 1 .762-1.889c.38-.21.719-.462 1.057-.714a1.1 1.1 0 0 1 .254-.21 1.74 1.74 0 0 1 2.03-.21l2.157 1.302a5.18 5.18 0 0 1-1.27 3.526m-9.516-7.976c-.888-1.049-.761-2.602.254-3.526s2.622-.755 3.553.252c.888 1.049.76 2.603-.254 3.526-1.058.882-2.665.756-3.553-.252m13.365-3.316c.211.924.295 2.309-.593 3.778l-2.58-.294a1.72 1.72 0 0 1-1.48-1.721c0-.63-.084-1.217-.211-1.847-.212-.756.17-1.511.846-1.889l2.114-1.133c.93.839 1.65 1.931 1.904 3.106m-8.12-9.067c.93.294 2.199.966 3.002 2.603l-1.142 1.511c-.507.671-1.438.881-2.241.504-.508-.252-1.057-.42-1.565-.546-.846-.168-1.48-.924-1.438-1.805l.085-2.183c1.057-.378 2.241-.42 3.298-.084m-11.081 2.393c.507-.546 2.368-1.847 3.595-1.637l.761 2.602a1.67 1.67 0 0 1-.677 1.889c-.169.126-.296.21-.465.336a8 8 0 0 0-.846.84c-.55.671-1.522.881-2.283.419l-1.904-1.133c.296-1.175.93-2.435 1.819-3.316m-4.145 10.452c-.296-1.343-.211-2.519.296-3.232l3.215.336c.845.084 1.48.755 1.564 1.553a5 5 0 0 0 .38 1.553c.297.839 0 1.763-.803 2.183l-2.495 1.301c-.973-.756-1.818-2.183-2.157-3.694m9.008 9.529c-1.649-.294-3.13-1.26-3.933-2.519l1.777-2.351c.507-.671 1.438-.881 2.199-.545.338.126.676.251 1.015.335.803.21 1.353.924 1.353 1.763l-.042 3.233c-.72.21-1.523.21-2.369.084M44.727 281.081l1.988 8.605"/><path stroke="#F8F4E9" stroke-linecap="round" stroke-linejoin="round" stroke-miterlimit="10" stroke-width="1.5" d="M61.179 295.311c.169-.126 6.682-5.834 6.682-5.834M64.012 310.633l9.558 3.316M34.45 300.391l-9.981-3.233M37.326 315.46l-7.486 6.506M52.17 321.379l1.48 9.151M186.617 238.853c2.733 0 4.948-2.199 4.948-4.911s-2.215-4.911-4.948-4.911-4.948 2.199-4.948 4.911 2.215 4.911 4.948 4.911M252.466 164.975a2.15 2.15 0 0 0 2.157-2.141 2.15 2.15 0 0 0-2.157-2.141 2.15 2.15 0 0 0-2.157 2.141c0 1.184.966 2.141 2.157 2.141M165.048 250.187a2.15 2.15 0 0 0 2.157-2.141 2.15 2.15 0 0 0-2.157-2.141 2.15 2.15 0 0 0-2.157 2.141c0 1.184.966 2.141 2.157 2.141M110.66 126.692c2.406 0 4.356-1.935 4.356-4.323s-1.95-4.324-4.356-4.324-4.356 1.935-4.356 4.324 1.951 4.323 4.356 4.323M62.786 142.769c1.798 0 3.257-1.448 3.257-3.232s-1.459-3.233-3.257-3.233-3.256 1.449-3.256 3.233 1.457 3.232 3.256 3.232M81.944 250.691c2.196 0 3.975-1.768 3.975-3.946s-1.78-3.946-3.975-3.946-3.975 1.767-3.975 3.946c0 2.178 1.78 3.946 3.975 3.946M218.082 377.585a2.147 2.147 0 0 0 2.157-2.14 2.15 2.15 0 0 0-2.157-2.141 2.147 2.147 0 0 0-2.156 2.141c0 1.183.965 2.14 2.156 2.14M8.99 307.695a2.864 2.864 0 0 0 2.876-2.855c0-1.578-1.288-2.854-2.876-2.854a2.864 2.864 0 0 0-2.876 2.854 2.864 2.864 0 0 0 2.876 2.855M14.023 266.81c1.985 0 3.595-1.6 3.595-3.568 0-1.969-1.61-3.568-3.595-3.568s-3.595 1.599-3.595 3.568c0 1.968 1.61 3.568 3.595 3.568M60.248 260.387c.794 0 1.438-.638 1.438-1.427s-.644-1.427-1.438-1.427-1.438.638-1.438 1.427.644 1.427 1.438 1.427M62.151 347.992c.794 0 1.438-.638 1.438-1.427s-.644-1.427-1.438-1.427-1.438.638-1.438 1.427.644 1.427 1.438 1.427M28.106 283.348c1.004 0 1.819-.81 1.819-1.805s-.815-1.805-1.819-1.805-1.819.81-1.819 1.805.815 1.805 1.819 1.805M107.573 177.903c2.196 0 3.976-1.767 3.976-3.945s-1.78-3.946-3.976-3.946-3.975 1.767-3.975 3.946c0 2.178 1.779 3.945 3.975 3.945M180.908 154.942c.794 0 1.438-.638 1.438-1.427s-.644-1.427-1.438-1.427c-.795 0-1.438.638-1.438 1.427s.643 1.427 1.438 1.427M177.609 225.672c.794 0 1.438-.638 1.438-1.427s-.644-1.427-1.438-1.427-1.438.638-1.438 1.427.644 1.427 1.438 1.427M128.465 150.954c.795 0 1.438-.638 1.438-1.427s-.643-1.427-1.438-1.427-1.438.638-1.438 1.427.644 1.427 1.438 1.427M150.965 264.543c.794 0 1.438-.638 1.438-1.427s-.644-1.428-1.438-1.428-1.438.639-1.438 1.428.644 1.427 1.438 1.427M90.487 296.235c.794 0 1.438-.638 1.438-1.427s-.644-1.427-1.438-1.427-1.438.638-1.438 1.427.644 1.427 1.438 1.427M94.209 209.47a2.865 2.865 0 0 0 2.876-2.855c0-1.578-1.288-2.854-2.876-2.854a2.864 2.864 0 0 0-2.876 2.854 2.865 2.865 0 0 0 2.876 2.855M108.334 299.803a2.864 2.864 0 0 0 2.876-2.854 2.864 2.864 0 0 0-2.876-2.855 2.864 2.864 0 0 0-2.876 2.855c0 1.578 1.288 2.854 2.876 2.854M136.12 239.567a2.864 2.864 0 0 0 2.876-2.855 2.864 2.864 0 0 0-2.876-2.854c-1.588 0-2.876 1.276-2.876 2.854a2.864 2.864 0 0 0 2.876 2.855M181.753 312.732a2.864 2.864 0 0 0 2.876-2.855c0-1.578-1.288-2.854-2.876-2.854a2.863 2.863 0 0 0-2.875 2.854 2.864 2.864 0 0 0 2.875 2.855M217.406 244.604a2.53 2.53 0 0 0 2.537-2.519 2.53 2.53 0 0 0-2.537-2.518 2.53 2.53 0 0 0-2.538 2.518 2.53 2.53 0 0 0 2.538 2.519M173.295 374.731a2.53 2.53 0 0 0 2.538-2.519 2.53 2.53 0 0 0-2.538-2.518 2.53 2.53 0 0 0-2.537 2.518 2.53 2.53 0 0 0 2.537 2.519M183.107 188.649c1.588 0 2.876-1.276 2.876-2.854a2.864 2.864 0 0 0-2.876-2.855 2.864 2.864 0 0 0-2.876 2.855 2.864 2.864 0 0 0 2.876 2.854M105.078 71.787c.794 0 1.438-.639 1.438-1.427s-.644-1.427-1.438-1.427-1.438.638-1.438 1.427c0 .788.644 1.427 1.438 1.427M96.366 109.314c.794 0 1.438-.638 1.438-1.428s-.644-1.427-1.438-1.427c-.795 0-1.438.638-1.438 1.427 0 .79.643 1.428 1.438 1.428M17.998 78.965c1.799 0 3.257-1.447 3.257-3.232S19.797 72.5 17.998 72.5c-1.798 0-3.256 1.447-3.256 3.233 0 1.785 1.458 3.232 3.256 3.232M87.357 46.685c1.8 0 3.257-1.447 3.257-3.232s-1.458-3.233-3.257-3.233c-1.798 0-3.256 1.447-3.256 3.233 0 1.785 1.458 3.232 3.256 3.232M52.678 117.667a2.53 2.53 0 0 0 2.537-2.519 2.53 2.53 0 0 0-2.537-2.518 2.53 2.53 0 0 0-2.538 2.518 2.53 2.53 0 0 0 2.538 2.519M103.259 32.329c2.593 0 4.695-2.086 4.695-4.66 0-2.573-2.102-4.659-4.695-4.659-2.592 0-4.694 2.086-4.694 4.66 0 2.573 2.102 4.659 4.694 4.659M14.403 110.489c2.593 0 4.695-2.086 4.695-4.659s-2.102-4.66-4.695-4.66-4.694 2.087-4.694 4.66 2.101 4.659 4.694 4.659M121.192 10.879a1.81 1.81 0 0 0 1.818-1.805c0-.997-.814-1.805-1.818-1.805a1.81 1.81 0 0 0-1.819 1.805c0 .997.814 1.805 1.819 1.805M133.963 35.183c1.588 0 2.876-1.277 2.876-2.854s-1.288-2.854-2.876-2.854a2.865 2.865 0 0 0-2.875 2.854 2.865 2.865 0 0 0 2.875 2.854M238.721 14.405a2.865 2.865 0 0 0 2.876-2.854 2.865 2.865 0 0 0-2.876-2.855c-1.588 0-2.876 1.278-2.876 2.855s1.288 2.854 2.876 2.854M99.284 146.337a2.15 2.15 0 0 0 2.157-2.141 2.15 2.15 0 0 0-2.157-2.141 2.15 2.15 0 0 0-2.157 2.141c0 1.184.965 2.141 2.157 2.141M153.122 155.698a2.53 2.53 0 0 0 2.537-2.519 2.53 2.53 0 0 0-2.537-2.518 2.53 2.53 0 0 0-2.538 2.518 2.53 2.53 0 0 0 2.538 2.519M120.556 317.853l-1.268 4.869c-.17.63-.043 1.343.338 1.889l3.51 5.037a.9.9 0 0 0 1.607-.336l1.142-5.498c.127-.63 0-1.302-.423-1.805l-3.299-4.45c-.465-.63-1.395-.42-1.607.294M101.229 336.071l3.595 3.526a2.4 2.4 0 0 0 1.819.671l6.174-.503a.891.891 0 0 0 .508-1.554l-4.229-3.693c-.508-.42-1.142-.63-1.777-.546l-5.54.63c-.761.041-1.1.965-.55 1.469M107.488 361.802l4.864-1.343a2.37 2.37 0 0 0 1.48-1.217l2.664-5.541c.339-.714-.338-1.47-1.099-1.218l-5.371 1.763a2.3 2.3 0 0 0-1.396 1.26l-2.199 5.079c-.296.671.338 1.385 1.057 1.217M132.906 368.476l1.269-4.869a2.31 2.31 0 0 0-.339-1.889l-3.51-5.037a.9.9 0 0 0-1.607.336l-1.142 5.499c-.127.629 0 1.301.423 1.805l3.299 4.449c.465.588 1.396.42 1.607-.294M152.064 351.434l-3.594-3.526a2.4 2.4 0 0 0-1.819-.672l-6.175.504a.89.89 0 0 0-.507 1.553l4.229 3.694c.508.42 1.142.63 1.776.546l5.541-.63c.761-.042 1.057-.923.549-1.469"/><path stroke="#F8F4E9" stroke-linecap="round" stroke-linejoin="round" stroke-miterlimit="10" stroke-width="1.5" d="m111.126 391.018 14.167-17.379c.635-.797 1.904-.755 2.496.126l5.794 8.648c.423.629 1.438.461 1.607-.294l2.368-9.613c.254-.965 1.353-1.469 2.242-.965l19.369 11.081c.889.504 1.946-.377 1.565-1.343l-8.035-20.694c-.381-.966.296-2.015 1.353-2.099l10.446-.672c.761-.042 1.142-1.007.55-1.553l-7.19-6.842c-.719-.714-.592-1.889.254-2.393l18.905-11.627c.846-.546.592-1.847-.423-2.015l-22.88-3.526c-1.015-.168-1.607-1.259-1.142-2.183l4.61-9.319a.897.897 0 0 0-1.058-1.259l-9.558 2.729c-.972.293-1.945-.42-1.987-1.428l-.677-22.079c-.042-1.008-1.311-1.427-1.945-.63l-13.872 17.043c-.635.797-1.903.755-2.496-.126l-5.794-8.647c-.423-.63-1.438-.462-1.607.293l-2.368 9.613c-.254.965-1.353 1.469-2.242.965l-19.623-10.452c-.888-.461-1.903.42-1.565 1.344l8.078 21.282c.381.965-.296 2.014-1.353 2.098l-10.447.672c-.76.042-1.142 1.007-.55 1.553l7.19 6.842c.72.714.592 1.889-.254 2.393l-18.946 11.669c-.846.546-.593 1.847.38 2.015l22.584 3.652c1.015.168 1.607 1.26 1.142 2.183l-4.61 9.319a.897.897 0 0 0 1.058 1.259l9.558-2.728c.972-.294 1.945.419 1.987 1.427l.888 21.114c.127.881 1.396 1.301 2.031.546"/><path stroke="#F8F4E9" stroke-linecap="round" stroke-linejoin="round" stroke-miterlimit="10" stroke-width="1.5" d="m145.509 325.87-4.863 1.344a2.37 2.37 0 0 0-1.481 1.217l-2.664 5.541c-.338.713.338 1.469 1.099 1.217l5.372-1.763a2.3 2.3 0 0 0 1.395-1.259l2.199-5.079c.296-.672-.338-1.386-1.057-1.218M126.647 338.463l1.692-1.889c.507-.545 1.395-.252 1.48.462l.296 2.519a1.88 1.88 0 0 0 1.48 1.637l2.495.503c.719.126.931 1.092.339 1.512l-2.073 1.511c-.676.461-.93 1.343-.676 2.099l.803 2.392c.254.714-.465 1.343-1.142 1.05l-2.326-1.008c-.761-.336-1.607-.126-2.157.462l-1.691 1.889c-.508.546-1.396.252-1.481-.462l-.296-2.518a1.88 1.88 0 0 0-1.48-1.638l-2.495-.503c-.719-.126-.931-1.092-.338-1.511l2.072-1.512c.677-.461.93-1.343.677-2.098l-.804-2.393c-.254-.714.465-1.343 1.142-1.049l2.326 1.007c.761.336 1.649.126 2.157-.462M137.854 308.282l-6.048 7.22c-.761.882-1.141 2.015-1.141 3.19v9.403c0 1.217 1.522 1.763 2.283.839l6.048-7.219c.761-.882 1.142-2.015 1.142-3.191v-9.402c0-1.218-1.48-1.763-2.284-.84M101.314 316.174l3.299 8.815c.423 1.091 1.184 2.015 2.199 2.56l8.205 4.702c1.057.587 2.283-.42 1.86-1.554l-3.298-8.815c-.423-1.091-1.185-2.014-2.2-2.56l-8.204-4.702c-1.058-.629-2.284.42-1.861 1.554M88.795 352.106l9.347 1.595a4.9 4.9 0 0 0 3.341-.588l8.205-4.701c1.057-.588.761-2.183-.423-2.393l-9.347-1.595a4.9 4.9 0 0 0-3.341.588l-8.205 4.701c-1.057.588-.761 2.183.423 2.393M115.27 378.719l6.048-7.22c.761-.882 1.142-2.015 1.142-3.19v-9.403c0-1.218-1.523-1.763-2.284-.84l-6.048 7.22c-.761.882-1.142 2.015-1.142 3.19v9.403c0 1.259 1.523 1.763 2.284.84M151.049 370.197l-3.298-8.815c-.423-1.091-1.185-2.015-2.2-2.56l-8.204-4.702c-1.058-.587-2.284.42-1.861 1.553l3.299 8.815c.422 1.092 1.184 2.015 2.199 2.561l8.204 4.701c1.015.63 2.284-.419 1.861-1.553M162.891 336.07l-9.346-1.595a4.9 4.9 0 0 0-3.341.588l-8.205 4.701c-1.057.588-.761 2.183.423 2.393l9.346 1.595a4.9 4.9 0 0 0 3.341-.588l8.205-4.701c1.057-.63.761-2.183-.423-2.393M169.489 322.302a2.15 2.15 0 0 0 2.157-2.14 2.15 2.15 0 0 0-2.157-2.141 2.15 2.15 0 0 0-2.157 2.141c0 1.183.965 2.14 2.157 2.14M201.039 306.183a1.894 1.894 0 0 0 1.903-1.889 1.894 1.894 0 0 0-1.903-1.888 1.895 1.895 0 0 0-1.904 1.888c0 1.046.853 1.889 1.904 1.889M191.904 318.482a.8.8 0 0 0 .803-.797.8.8 0 0 0-.803-.798.8.8 0 0 0-.804.798.8.8 0 0 0 .804.797M254.919 145.875a.8.8 0 0 0 .803-.797.8.8 0 0 0-.803-.798.8.8 0 0 0-.804.798.8.8 0 0 0 .804.797M232.885 154.522l-2.834-2.812a3.38 3.38 0 0 1 0-4.827l2.834-2.813a3.44 3.44 0 0 1 4.863 0l2.834 2.813a3.38 3.38 0 0 1 0 4.827l-2.834 2.812a3.437 3.437 0 0 1-4.863 0M243.204 360.291l-2.834-2.812a3.38 3.38 0 0 1 0-4.828l2.834-2.812a3.44 3.44 0 0 1 4.864 0l2.833 2.812a3.377 3.377 0 0 1 0 4.828l-2.833 2.812a3.44 3.44 0 0 1-4.864 0M51.874 33.337l-3.933-.714a3.45 3.45 0 0 1-2.791-3.946l.719-3.904c.338-1.847 2.114-3.064 3.975-2.77l3.934.713a3.45 3.45 0 0 1 2.79 3.946l-.718 3.904c-.339 1.847-2.115 3.106-3.976 2.77M76.108 275.289c.042.168.296.168.338 0 .634-2.561 2.284-4.492 3.003-5.289a.53.53 0 0 0 0-.756c-.72-.755-2.369-2.686-3.003-5.205-.042-.168-.296-.168-.338 0-.635 2.519-2.242 4.45-3.003 5.205a.53.53 0 0 0 0 .756c.719.797 2.368 2.728 3.003 5.289M193.934 183.696c.042.168.296.168.338 0 .634-2.56 2.284-4.491 3.003-5.289a.53.53 0 0 0 0-.755c-.719-.756-2.369-2.687-3.003-5.206-.042-.167-.296-.167-.338 0-.635 2.519-2.242 4.45-3.003 5.206a.53.53 0 0 0 0 .755c.719.798 2.368 2.729 3.003 5.289M116.116 104.361c.042.168.296.168.338 0 .635-2.561 2.284-4.492 3.003-5.29a.53.53 0 0 0 0-.755c-.719-.755-2.368-2.686-3.003-5.205-.042-.168-.296-.168-.338 0-.634 2.519-2.241 4.45-3.003 5.205a.53.53 0 0 0 0 .756c.719.797 2.369 2.728 3.003 5.289M9.92 29.853 3.282 43.704M7.341 35.183c-.042-.294-3.045-4.491-3.045-4.491M7.468 35.225c.254-.126 5.456-.42 5.456-.42M-.695 32.917.11 43.033M-.272 37.324c-.126-.168-3.552-1.72-3.552-1.72M-.187 37.282c.084-.168 3.256-2.225 3.256-2.225M1.885 65.239l-.93-9.655M1.547 60.999c.127.168 3.553 1.721 3.553 1.721M1.462 60.999c-.084.168-3.256 2.225-3.256 2.225M12.712 66.582 4.507 54.576M9.371 61.713c.254.125 5.456-.378 5.456-.378M9.287 61.755c0 .293-2.327 4.869-2.327 4.869M15.419 56.13 6.24 51.764M11.316 54.115c.212-.042 3.257-2.183 3.257-2.183M11.274 54.199c.085.168.296 3.904.296 3.904M22.1 47.357 7.215 48.49M16.138 47.777c.211-.168 2.368-4.87 2.368-4.87M16.138 47.902c.254.126 3.087 4.45 3.087 4.45M14.023 39.885l-8.247 5.667M10.47 42.32c.085-.169-.296-3.904-.296-3.904M10.513 42.361c.21 0 3.552 1.68 3.552 1.68M.616 55.332c3.41 0 6.175-2.744 6.175-6.129S4.027 43.076.616 43.076s-6.174 2.744-6.174 6.128 2.764 6.13 6.174 6.13M72.184 399.551l3.806.965a2.85 2.85 0 0 1 2.073 2.057l.846 3.232c.253.923 1.141 1.469 2.072 1.217l1.988-.503c.93-.252 1.48-1.134 1.226-2.057l-.55-2.141 2.75.63c.93.209 1.818-.336 2.03-1.26l.465-2.015a1.655 1.655 0 0 0-1.27-2.014l-2.79-.63 1.48-1.721a1.747 1.747 0 0 0-.17-2.393l-1.564-1.343a1.78 1.78 0 0 0-2.411.168l-2.157 2.518c-.719.84-1.86 1.176-2.918.924l-3.933-1.007a2 2 0 0 1-1.353-1.176l-.212-.587a1.96 1.96 0 0 1 .38-1.973l2.411-2.561c.72-.797 1.861-1.091 2.876-.797l3.172.881c.888.252 1.86-.294 2.115-1.175l.55-1.973c.253-.882-.297-1.847-1.185-2.099l-2.114-.588 1.945-2.057c.634-.671.592-1.763-.085-2.392l-1.522-1.385c-.677-.63-1.776-.588-2.41.084l-1.946 2.098-.761-2.14c-.296-.882-1.27-1.344-2.157-1.05l-1.946.672a1.685 1.685 0 0 0-1.057 2.141l1.142 3.19c.338 1.007.127 2.099-.592 2.854l-2.453 2.687c-.465.503-1.184.755-1.861.587l-1.1-.252a2.01 2.01 0 0 1-1.437-1.343l-.973-3.316c-.296-1.007 0-2.099.761-2.854l2.368-2.309a1.7 1.7 0 0 0 .043-2.393l-1.438-1.469a1.734 1.734 0 0 0-2.41-.042l-1.566 1.511-.846-2.686c-.253-.882-1.226-1.385-2.114-1.134l-1.988.588c-.888.252-1.395 1.217-1.142 2.099l.846 2.728-2.241-.419c-.93-.168-1.819.419-1.988 1.343l-.38 2.015a1.68 1.68 0 0 0 1.353 1.973l3.34.629c1.016.21 1.861.924 2.2 1.889l1.226 3.652c.254.714.043 1.469-.507 2.015l-.085.084c-.465.462-1.142.63-1.776.504l-3.637-.84a2.84 2.84 0 0 1-2.115-2.057l-.803-3.19c-.254-.923-1.142-1.469-2.073-1.217l-1.987.504c-.93.251-1.48 1.133-1.227 2.056l.55 2.141-2.75-.629c-.93-.21-1.818.335-2.03 1.259l-.464 2.015a1.656 1.656 0 0 0 1.268 2.015l2.792.629-1.48 1.721a1.747 1.747 0 0 0 .169 2.393l1.564 1.343a1.78 1.78 0 0 0 2.411-.168l2.2-2.518a2.86 2.86 0 0 1 2.833-.924l3.806.882a1.914 1.914 0 0 1 .973 3.19l-2.834 3.064a2.9 2.9 0 0 1-2.918.84l-3.172-.882c-.888-.252-1.86.294-2.114 1.176l-.55 1.972c-.254.882.296 1.847 1.184 2.099l2.115.588-1.946 2.057c-.634.671-.592 1.763.085 2.392l1.522 1.386c.677.629 1.777.587 2.411-.084l1.945-2.099.762 2.141c.296.881 1.269 1.343 2.157 1.049l1.945-.672a1.684 1.684 0 0 0 1.057-2.14l-1.142-3.149a2.9 2.9 0 0 1 .593-2.896l2.495-2.686a2.02 2.02 0 0 1 2.03-.546l1.015.336c.634.21 1.1.713 1.269 1.301l1.1 3.946a2.78 2.78 0 0 1-.762 2.812l-2.41 2.309a1.7 1.7 0 0 0-.043 2.393l1.438 1.469a1.734 1.734 0 0 0 2.41.042l1.565-1.511.846 2.686c.254.882 1.227 1.385 2.115 1.133l1.987-.587c.889-.252 1.396-1.218 1.142-2.099l-.845-2.729 2.241.42c.93.168 1.819-.42 1.988-1.343l.38-2.015a1.68 1.68 0 0 0-1.353-1.973l-3.299-.587c-1.057-.21-1.945-.966-2.241-2.015l-1.142-3.862c-.212-.672 0-1.427.507-1.931l.55-.504c.508-.587 1.184-.755 1.861-.587M236.86 178.281c1.607 4.534-1.692 8.731-3.806 8.731-2.115 0-5.075-4.071-3.806-8.731 1.395-4.953 1.691-8.731 3.806-8.731 2.114.042 2.199 4.24 3.806 8.731M241.089 179.205l1.058 4.617c.211 1.007 1.226 1.595 2.241 1.385l4.948-1.217M244.6 182.689l2.537-4.282M236.479 196.121l4.906-8.269M232.97 189.237l-.085 6.255M233.054 192.889c2.03-1.931 4.271-.63 4.356 1.385M249.421 176.225a1.77 1.77 0 0 0 1.776-1.764 1.77 1.77 0 0 0-1.776-1.763 1.77 1.77 0 0 0-1.776 1.763 1.77 1.77 0 0 0 1.776 1.764M213.599 186.928c4.779.924 6.767 5.835 5.71 7.64s-6.09 2.351-9.516-1.091c-3.637-3.652-6.767-5.835-5.709-7.64 1.015-1.805 4.779.168 9.515 1.091M216.518 183.738l4.567 1.385c.973.294 2.03-.251 2.326-1.217l1.396-4.869M221.297 182.437l-2.495-4.282M228.952 196.163l-4.779-8.353M221.17 195.743l5.413 3.19M224.426 197.464c-.676-2.728 1.565-3.987 3.384-3.064M216.518 175.93a1.77 1.77 0 0 0 1.776-1.763 1.77 1.77 0 0 0-1.776-1.763 1.77 1.77 0 0 0-1.777 1.763 1.77 1.77 0 0 0 1.777 1.763M209.878 211.023c3.172-3.652 8.458-2.897 9.515-1.092s-1.015 6.423-5.709 7.64c-5.033 1.301-8.458 2.896-9.516 1.091s2.538-4.071 5.71-7.639M208.524 206.909l3.511-3.232c.761-.714.803-1.847.084-2.603l-3.51-3.652M209.836 202.124h-5.033M225.568 202.418l-9.642-.085M221.339 208.882l5.498-3.022M224.511 206.951c-2.707-.797-2.707-3.316-.973-4.407M200.193 203.887a1.77 1.77 0 0 0 1.776-1.763 1.77 1.77 0 0 0-1.776-1.763 1.77 1.77 0 0 0-1.776 1.763 1.77 1.77 0 0 0 1.776 1.763M228.951 226.26c-1.607-4.533 1.692-8.731 3.807-8.731 2.114 0 5.075 4.072 3.806 8.731-1.396 4.953-1.692 8.731-3.806 8.731-2.115 0-2.242-4.239-3.807-8.731M224.68 225.337l-1.057-4.618c-.212-1.007-1.227-1.595-2.242-1.385l-4.948 1.217M221.17 221.853l-2.495 4.323M229.332 208.42l-4.906 8.27M232.842 215.304l.085-6.212M232.758 211.652c-2.03 1.931-4.272.63-4.356-1.385M216.349 231.885a1.77 1.77 0 0 0 1.776-1.763 1.77 1.77 0 0 0-1.776-1.763 1.77 1.77 0 0 0-1.777 1.763 1.77 1.77 0 0 0 1.777 1.763M251.832 217.991c-4.779-.924-6.767-5.835-5.71-7.64s6.09-2.351 9.516 1.091c3.637 3.652 6.767 5.835 5.709 7.64-1.057 1.805-4.779-.168-9.515-1.091M248.914 221.181l-4.568-1.385c-.973-.294-2.03.252-2.326 1.217l-1.396 4.869M244.134 222.482l2.496 4.282M236.479 208.756l4.78 8.353M244.261 209.176l-5.413-3.19M241.005 207.455c.677 2.728-1.565 3.988-3.384 3.064M248.913 232.515a1.77 1.77 0 0 0 1.777-1.763 1.77 1.77 0 0 0-1.777-1.763 1.77 1.77 0 0 0-1.776 1.763 1.77 1.77 0 0 0 1.776 1.763M256.188 193.603c-3.172 3.652-8.459 2.896-9.516 1.091s1.015-6.422 5.709-7.64c5.033-1.301 8.459-2.896 9.516-1.091s-2.58 4.03-5.709 7.64M257.541 197.716l-3.51 3.232c-.761.714-.804 1.847-.085 2.603l3.51 3.652M256.23 202.502l5.033-.043M240.455 202.208l9.685.084M244.726 195.743l-5.497 3.022M241.555 197.632c2.706.798 2.706 3.316.972 4.408M265.873 204.265c.98 0 1.776-.79 1.776-1.763a1.77 1.77 0 0 0-1.776-1.763 1.77 1.77 0 0 0-1.777 1.763 1.77 1.77 0 0 0 1.777 1.763M233.054 206.153c2.102 0 3.806-1.691 3.806-3.777s-1.704-3.778-3.806-3.778-3.806 1.691-3.806 3.778 1.704 3.777 3.806 3.777"/><path stroke="#F8F4E9" stroke-linecap="round" stroke-linejoin="round" stroke-width="1.5" d="M233.054 177.819v.336"/><path stroke="#F8F4E9" stroke-dasharray="1.26 1.26" stroke-linecap="round" stroke-linejoin="round" stroke-width="1.5" d="M233.054 179.834v1.343"/><path stroke="#F8F4E9" stroke-linecap="round" stroke-linejoin="round" stroke-width="1.5" d="M233.054 182.017v.336M250.267 192.343l.296-.168"/><path stroke="#F8F4E9" stroke-dasharray="1.3 1.3" stroke-linecap="round" stroke-linejoin="round" stroke-width="1.5" d="m252.085 191.378 1.269-.672"/><path stroke="#F8F4E9" stroke-linecap="round" stroke-linejoin="round" stroke-width="1.5" d="m254.115 190.328.296-.168M249.632 212.534l.296.168"/><path stroke="#F8F4E9" stroke-dasharray="1.22 1.22" stroke-linecap="round" stroke-linejoin="round" stroke-width="1.5" d="m251.324 213.499 1.142.672"/><path stroke="#F8F4E9" stroke-linecap="round" stroke-linejoin="round" stroke-width="1.5" d="m253.185 214.591.296.167M211.02 190.16l.296.168"/><path stroke="#F8F4E9" stroke-dasharray="1.56 1.56" stroke-linecap="round" stroke-linejoin="round" stroke-width="1.5" d="m213.176 191.252 1.523.756"/><path stroke="#F8F4E9" stroke-linecap="round" stroke-linejoin="round" stroke-width="1.5" d="m215.63 192.469.296.168M211.231 214.591l.296-.168"/><path stroke="#F8F4E9" stroke-dasharray="1.62 1.62" stroke-linecap="round" stroke-linejoin="round" stroke-width="1.5" d="m213.387 213.331 1.523-.881"/><path stroke="#F8F4E9" stroke-linecap="round" stroke-linejoin="round" stroke-width="1.5" d="m215.841 211.904.296-.168M232.589 221.937v.336"/><path stroke="#F8F4E9" stroke-dasharray="1.19 1.19" stroke-linecap="round" stroke-linejoin="round" stroke-width="1.5" d="M232.63 223.868v1.259"/><path stroke="#F8F4E9" stroke-linecap="round" stroke-linejoin="round" stroke-width="1.5" d="M232.673 225.925v.335"/><path stroke="#F8F4E9" stroke-dasharray="1.55 1.55" stroke-linecap="round" stroke-linejoin="round" stroke-width="1.5" d="M233.054 207.959c3.106 0 5.625-2.498 5.625-5.583s-2.519-5.583-5.625-5.583c-3.107 0-5.625 2.498-5.625 5.583s2.518 5.583 5.625 5.583"/><path stroke="#F8F4E9" stroke-linecap="round" stroke-linejoin="round" stroke-miterlimit="10" stroke-width="1.5" d="m205.014 254.594-2.537 4.366c-.592 1.007-.677 2.225-.212 3.274l.339.797c.592 1.344 2.368 1.722 3.425.672l.465-.462c.762-.755 1.185-1.805 1.1-2.854l-.381-5.247c-.084-1.217-1.607-1.553-2.199-.546M219.267 248.969l-6.09 3.317c-1.396.755-2.326 2.224-2.369 3.735l-.042 2.267c-.042 1.637 1.311 2.813 2.961 2.603l2.326-.294c1.565-.21 2.96-1.343 3.552-2.855l2.453-6.422c.677-1.805-1.057-3.274-2.791-2.351M189.874 260.429l2.537 4.365a3.66 3.66 0 0 0 2.749 1.805l.846.084c1.48.168 2.664-1.175 2.284-2.602l-.169-.63c-.254-1.049-.973-1.889-1.946-2.35l-4.779-2.309c-1.015-.504-2.114.629-1.522 1.637M192.116 245.402l-.128 6.884c-.042 1.595.804 3.106 2.073 3.904l1.945 1.175c1.438.839 3.13.294 3.764-1.217l.888-2.141c.592-1.427.297-3.232-.718-4.492l-4.399-5.331c-1.269-1.511-3.383-.755-3.425 1.218M187.886 275.96h5.075c1.184 0 2.284-.546 2.961-1.469l.507-.672c.888-1.175.296-2.896-1.142-3.274l-.634-.168c-1.057-.294-2.157-.126-3.045.504l-4.398 2.938c-.973.63-.508 2.141.676 2.141M175.875 266.516l5.963 3.568c1.353.839 3.13.881 4.441.168l2.03-1.092c1.48-.797 1.818-2.518.803-3.819l-1.438-1.847c-.972-1.218-2.664-1.889-4.271-1.596l-6.851 1.092c-1.946.294-2.369 2.476-.677 3.526M200.32 285.489l2.537-4.366c.592-1.007.677-2.224.212-3.274l-.339-.797c-.592-1.344-2.368-1.721-3.425-.672l-.465.462c-.762.755-1.185 1.805-1.1 2.854l.381 5.247c.042 1.176 1.607 1.553 2.199.546M186.067 291.072l6.09-3.316c1.396-.756 2.326-2.225 2.369-3.736l.042-2.267c.042-1.637-1.311-2.812-2.961-2.603l-2.326.294c-1.564.21-2.96 1.344-3.552 2.855l-2.453 6.422c-.677 1.847 1.057 3.316 2.791 2.351M215.46 279.612l-2.537-4.365a3.66 3.66 0 0 0-2.749-1.805l-.846-.084c-1.48-.168-2.664 1.175-2.283 2.602l.168.63c.254 1.049.973 1.889 1.946 2.351l4.779 2.308c1.015.546 2.114-.629 1.522-1.637M213.219 294.682l.127-6.884c.042-1.596-.803-3.107-2.072-3.904l-1.946-1.176c-1.438-.839-3.129-.293-3.764 1.218l-.888 2.141c-.592 1.427-.296 3.232.719 4.491l4.399 5.331c1.226 1.511 3.383.756 3.425-1.217M217.406 264.081h-5.075c-1.184 0-2.284.546-2.961 1.469l-.507.672c-.888 1.175-.296 2.896 1.142 3.274l.634.168c1.057.294 2.157.126 3.045-.504l4.398-2.938c.973-.588.508-2.099-.676-2.141M229.459 273.568 223.496 270c-1.353-.84-3.13-.882-4.441-.168l-2.03 1.091c-1.48.798-1.818 2.519-.803 3.82l1.438 1.847c.972 1.217 2.664 1.889 4.271 1.595l6.851-1.091c1.946-.294 2.369-2.519.677-3.526M203.027 272.476a2.23 2.23 0 0 0 2.241-2.224 2.23 2.23 0 0 0-2.241-2.225 2.233 2.233 0 0 0-2.242 2.225 2.23 2.23 0 0 0 2.242 2.224M38.468 42.487c.91 0 1.649-.733 1.649-1.637s-.738-1.637-1.65-1.637c-.91 0-1.649.733-1.649 1.637s.739 1.637 1.65 1.637M39.314 120.354c.91 0 1.649-.735 1.649-1.637 0-.903-.739-1.637-1.65-1.637s-1.649.734-1.649 1.637c0 .902.739 1.637 1.65 1.637M5.226 12.39c.724 0 1.311-.583 1.311-1.301 0-.719-.587-1.301-1.31-1.301-.725 0-1.312.582-1.312 1.3 0 .72.587 1.302 1.311 1.302M136.289 13.062a1.98 1.98 0 0 0 1.988-1.973 1.98 1.98 0 0 0-1.988-1.973 1.98 1.98 0 0 0-1.987 1.973c0 1.09.89 1.973 1.987 1.973M254.877 124.887a1.98 1.98 0 0 0 1.987-1.973 1.98 1.98 0 0 0-1.987-1.973 1.98 1.98 0 0 0-1.988 1.973c0 1.092.89 1.973 1.988 1.973M87.527 175.846c.724 0 1.31-.583 1.31-1.301s-.587-1.301-1.31-1.301c-.725 0-1.311.583-1.311 1.301s.587 1.301 1.31 1.301M114.428 207.539a1.63 1.63 0 0 0-.893-2.137 1.65 1.65 0 0 0-2.155.886 1.63 1.63 0 0 0 .893 2.137 1.653 1.653 0 0 0 2.155-.886M108.292 237.3c.911 0 1.649-.735 1.649-1.637 0-.903-.738-1.637-1.649-1.637s-1.649.734-1.649 1.637c0 .902.738 1.637 1.649 1.637M54.962 361.928a2.317 2.317 0 0 0 2.326-2.309 2.316 2.316 0 0 0-2.326-2.308 2.316 2.316 0 0 0-2.327 2.308 2.317 2.317 0 0 0 2.327 2.309M266.042 230.794a1.98 1.98 0 0 0 1.988-1.973c0-1.092-.89-1.973-1.988-1.973a1.98 1.98 0 0 0-1.988 1.973 1.98 1.98 0 0 0 1.988 1.973M263.42 364.782a2.613 2.613 0 0 0 2.622-2.602 2.614 2.614 0 0 0-2.622-2.603 2.614 2.614 0 0 0-2.623 2.603 2.614 2.614 0 0 0 2.623 2.602M233.138 333.426a1.98 1.98 0 0 0 1.988-1.973 1.98 1.98 0 0 0-1.988-1.973 1.98 1.98 0 0 0-1.987 1.973 1.98 1.98 0 0 0 1.987 1.973M22.143 177.777l.127.924c.169 1.217-.55 2.435-1.692 2.854-1.65.588-3.975 1.847-6.048 4.408-.676.881-1.902 1.175-2.917.755l-.212-.084c-1.015-.419-1.65-1.385-1.692-2.476l-.211-8.311c-.042-1.889 1.819-3.275 3.637-2.687l7.19 2.393a2.84 2.84 0 0 1 1.818 2.224M25.865 196.667a2.276 2.276 0 0 0 2.284-2.267 2.276 2.276 0 0 0-2.284-2.267 2.276 2.276 0 0 0-2.284 2.267 2.276 2.276 0 0 0 2.284 2.267M19.648 186.383l2.918 3.777M9.244 189.909l.846.335c1.184.462 1.86 1.68 1.607 2.897-.296 1.679-.38 4.323.846 7.388a2.46 2.46 0 0 1-.804 2.896l-.211.168c-.846.672-2.03.756-3.003.21l-7.359-3.946a2.714 2.714 0 0 1-.508-4.449l5.668-4.954c.845-.713 1.945-.923 2.918-.545M15.546 196.373l4.736-.588M13.388 207.455l.72-.588a2.69 2.69 0 0 1 3.34.042c1.311 1.092 3.595 2.477 6.852 2.98 1.1.168 1.988 1.05 2.114 2.141l.043.252c.127 1.05-.381 2.141-1.311 2.687l-7.148 4.323a2.747 2.747 0 0 1-4.144-1.805l-1.48-7.346c-.17-1.007.21-2.057 1.014-2.686M22.143 205.272l1.86-4.366M30.729 212.45l-.127-.923c-.17-1.218.55-2.435 1.691-2.855 1.65-.588 3.976-1.847 6.048-4.407.677-.882 1.903-1.176 2.918-.756l.212.084c1.015.42 1.65 1.385 1.692 2.477l.211 8.311c.042 1.889-1.819 3.274-3.637 2.686l-7.19-2.392c-.93-.378-1.65-1.218-1.818-2.225M33.224 203.803l-2.919-3.778M43.628 200.277l-.846-.336c-1.184-.462-1.86-1.679-1.607-2.896.296-1.679.38-4.324-.846-7.388a2.464 2.464 0 0 1 .803-2.897l.212-.168c.846-.671 2.03-.755 3.003-.209l7.359 3.945a2.715 2.715 0 0 1 .507 4.45l-5.667 4.953c-.846.714-1.946.924-2.918.546M37.326 193.812l-4.737.63"/><path stroke="#F8F4E9" stroke-linecap="round" stroke-linejoin="round" stroke-miterlimit="10" stroke-width="1.5" d="M42.359 259.044a3.79 3.79 0 0 0-.423-4.282l-6.471-7.556a3.63 3.63 0 0 1-.846-1.972l-.38-3.233c-.127-1.133 1.226-1.847 2.114-1.133l5.794 4.869c.804.714 1.988.798 2.918.294l8.205-4.575a2.538 2.538 0 0 0 .465-4.114l-7.105-6.38c-.761-.714-1.903-.84-2.876-.378l-7.866 3.82a1.913 1.913 0 0 1-2.75-1.47l-1.31-9.738c-.17-1.385 1.142-2.477 2.453-2.057l12.772 3.904c1.48.462 2.96-.714 2.876-2.225l-.804-12.593c-.084-1.385 1.311-2.392 2.622-1.889l9.939 3.946a1.882 1.882 0 0 1 .677 3.064l-5.667 5.793c-.762.756-.93 1.889-.508 2.854l4.06 8.732c.761 1.637 2.96 2.014 4.187.713l6.724-7.01c.762-.755.93-1.931.466-2.896l-2.834-5.835c-.507-1.091.592-2.225 1.692-1.721l2.876 1.301a3.73 3.73 0 0 1 1.565 1.343l5.455 8.564a3.8 3.8 0 0 0 4.018 1.679l9.473-2.393c2.411-.63 3.426-3.484 1.946-5.457l-5.71-7.514a3.77 3.77 0 0 0-3.933-1.763l-9.854 1.805c-.719.126-1.48.042-2.115-.252l-3.002-1.301c-1.058-.462-1.015-1.973.084-2.392l7.148-2.519c1.015-.378 1.691-1.301 1.691-2.393l.127-9.318c.043-1.763-1.691-3.023-3.383-2.477l-9.135 2.938a2.58 2.58 0 0 0-1.776 2.267l-.593 8.647c-.084 1.301-1.437 2.099-2.622 1.637l-9.177-3.736c-1.269-.545-1.607-2.182-.55-3.148l9.812-9.025c1.142-1.049.846-2.896-.508-3.568l-11.419-5.625a1.887 1.887 0 0 1-.338-3.19l8.416-6.59c1.058-.84 2.665-.336 3.003.965l2.2 7.766c.295 1.007 1.183 1.763 2.24 1.847l9.643.881c1.819.168 3.215-1.553 2.707-3.274l-2.749-9.277a2.63 2.63 0 0 0-2.284-1.847l-6.513-.461c-1.226-.084-1.65-1.637-.634-2.309l2.58-1.805c.592-.42 1.269-.63 1.987-.672l10.235-.419c1.607-.084 2.96-1.092 3.468-2.603l2.665-8.563c.719-2.267-1.016-4.534-3.384-4.492l-9.812.126c-1.564 0-3.002 1.008-3.51 2.477l-3.34 9.361a3.9 3.9 0 0 1-1.27 1.721l-2.622 1.931c-.93.671-2.241-.126-2.03-1.26l1.354-7.43c.211-1.049-.296-2.098-1.227-2.644l-8.078-4.743c-1.522-.882-3.468-.042-3.848 1.679l-1.988 9.318a2.545 2.545 0 0 0 1.1 2.645l7.274 4.827c1.1.714 1.142 2.267.084 3.065l-7.866 6.002c-1.1.84-2.707.252-3.003-1.091l-2.96-12.929c-.339-1.511-2.073-2.183-3.384-1.343l-10.573 7.01c-1.184.755-2.749.084-2.96-1.301l-1.523-10.536c-.211-1.344 1.058-2.435 2.369-2.099l7.908 1.973a2.62 2.62 0 0 0 2.75-1.008l5.582-7.849c1.057-1.47.254-3.526-1.48-3.946l-9.474-2.309c-1.057-.252-2.157.168-2.749 1.049l-3.68 5.373c-.676 1.008-2.24.588-2.367-.587l-.297-3.106a3.3 3.3 0 0 1 .423-2.015l4.737-8.983a3.81 3.81 0 0 0-.55-4.282l-6.64-6.842c-1.691-1.721-4.61-1.259-5.667.881l-4.229 8.732a3.79 3.79 0 0 0 .423 4.281l6.47 7.556c.466.546.762 1.217.847 1.973l.38 3.232c.127 1.133-1.226 1.847-2.114 1.133l-5.794-4.869c-.804-.714-1.988-.797-2.919-.294l-8.204 4.576a2.537 2.537 0 0 0-.465 4.113l7.105 6.381c.76.713 1.903.839 2.875.378l7.867-3.82a1.912 1.912 0 0 1 2.749 1.469l1.31 9.738c.17 1.386-1.141 2.477-2.452 2.057L5.903 165.1c-1.48-.461-2.96.714-2.876 2.225l.803 12.593c.085 1.385-1.31 2.393-2.622 1.889l-9.938-3.946a1.882 1.882 0 0 1-.677-3.064l5.667-5.793c.761-.755.93-1.889.508-2.854l-4.06-8.731c-.762-1.637-2.96-2.015-4.187-.714l-6.725 7.01c-.761.756-.93 1.931-.465 2.897l2.834 5.834c.507 1.092-.593 2.225-1.692 1.721l-2.876-1.301a3.7 3.7 0 0 1-1.565-1.343l-5.456-8.563a3.8 3.8 0 0 0-4.017-1.679l-9.516 2.896c-2.326.714-3.214 3.526-1.734 5.457l5.54 7.01a3.77 3.77 0 0 0 3.933 1.763l9.855-1.805c.718-.126 1.48-.042 2.114.252l3.003 1.301c1.057.462 1.015 1.973-.085 2.393l-7.147 2.518c-1.015.378-1.692 1.302-1.692 2.393l-.127 9.319c-.042 1.763 1.692 3.022 3.384 2.476l9.135-2.938a2.58 2.58 0 0 0 1.776-2.267l.592-8.647c.085-1.301 1.438-2.099 2.622-1.637l9.178 3.736c1.268.546 1.607 2.183.55 3.148l-9.812 9.025c-1.142 1.05-.846 2.897.507 3.568l11.42 5.625a1.887 1.887 0 0 1 .337 3.19l-8.416 6.591c-1.057.839-2.664.335-3.002-.966l-2.2-7.766c-.296-1.007-1.184-1.763-2.241-1.846l-9.643-.882c-1.818-.168-3.214 1.553-2.706 3.274l2.749 9.277a2.63 2.63 0 0 0 2.283 1.847l6.513.462c1.227.084 1.65 1.637.635 2.308l-2.58 1.805c-.592.42-1.269.63-1.988.672l-10.235.42c-1.607.084-2.96 1.091-3.468 2.602l-2.664 8.563c-.719 2.267 1.015 4.534 3.383 4.492l9.812-.126c1.565 0 3.003-1.007 3.51-2.477l3.342-9.36a3.9 3.9 0 0 1 1.268-1.721l2.622-1.931c.93-.672 2.242.126 2.03 1.259l-1.353 7.43c-.211 1.049.296 2.099 1.227 2.644l8.077 4.744c1.523.881 3.468.042 3.849-1.679l1.988-9.319a2.545 2.545 0 0 0-1.1-2.645l-7.274-4.827c-1.1-.714-1.142-2.267-.085-3.064l7.867-6.003c1.1-.839 2.706-.252 3.002 1.092l2.96 12.928c.34 1.511 2.073 2.183 3.384 1.344l10.573-7.011c1.184-.755 2.75-.083 2.96 1.302l1.523 10.536c.212 1.343-1.057 2.434-2.368 2.099l-7.909-1.973a2.615 2.615 0 0 0-2.749 1.007l-5.582 7.85c-1.058 1.469-.254 3.526 1.48 3.946l9.473 2.308c1.058.252 2.157-.168 2.75-1.049l3.679-5.373c.676-1.008 2.241-.588 2.368.588l.296 3.106a3.3 3.3 0 0 1-.423 2.015l-4.736 8.983a3.81 3.81 0 0 0 .55 4.281l6.47 7.01c1.65 1.805 4.652 1.386 5.71-.839z"/><path stroke="#F8F4E9" stroke-linecap="round" stroke-linejoin="round" stroke-miterlimit="10" stroke-width="1.5" d="m39.483 182.731-.72.587a2.686 2.686 0 0 1-3.34-.042c-1.311-1.091-3.595-2.476-6.852-2.98-1.1-.168-1.987-1.049-2.114-2.141l-.043-.252c-.127-1.049.381-2.14 1.311-2.686l7.148-4.324a2.747 2.747 0 0 1 4.145 1.805l1.48 7.346c.169 1.008-.212 2.057-1.015 2.687M30.729 184.914l-1.861 4.407"/><path stroke="#F8F4E9" stroke-dasharray="1.66 1.66" stroke-linecap="round" stroke-linejoin="round" stroke-width="1.5" d="M18.845 135.549c2.055 0 3.721-1.654 3.721-3.694s-1.666-3.694-3.721-3.694-3.722 1.654-3.722 3.694 1.666 3.694 3.722 3.694M77.884 161.029c2.055 0 3.722-1.654 3.722-3.694s-1.667-3.694-3.722-3.694-3.722 1.654-3.722 3.694 1.666 3.694 3.722 3.694"/><path stroke="#F8F4E9" stroke-dasharray="1.58 1.58" stroke-linecap="round" stroke-linejoin="round" stroke-width="1.5" d="M89.514 220.761c0 2.057-1.691 3.694-3.721 3.694s-3.722-1.679-3.722-3.694c0-2.057 1.692-3.694 3.722-3.694s3.721 1.637 3.721 3.694M76.996 201.578c0 2.057-1.691 3.694-3.721 3.694s-3.722-1.679-3.722-3.694c0-2.057 1.691-3.694 3.722-3.694s3.721 1.637 3.721 3.694M33.985 262.36c2.055 0 3.721-1.654 3.721-3.694s-1.666-3.694-3.721-3.694-3.722 1.654-3.722 3.694 1.666 3.694 3.722 3.694M67.776 224.245c0 2.057-1.692 3.694-3.722 3.694-2.072 0-3.721-1.679-3.721-3.694 0-2.057 1.691-3.694 3.721-3.694 2.073 0 3.722 1.637 3.722 3.694M23.454 242.337c0 2.057-1.692 3.694-3.722 3.694-2.072 0-3.721-1.679-3.721-3.694 0-2.057 1.691-3.694 3.721-3.694 2.03-.042 3.722 1.637 3.722 3.694M44.093 242.547c2.055 0 3.722-1.654 3.722-3.694s-1.667-3.694-3.722-3.694c-2.056 0-3.722 1.654-3.722 3.694s1.666 3.694 3.722 3.694"/><path stroke="#F8F4E9" stroke-dasharray="1.66 1.66" stroke-linecap="round" stroke-linejoin="round" stroke-width="1.5" d="M55.512 161.7c2.055 0 3.721-1.653 3.721-3.694s-1.666-3.694-3.721-3.694-3.722 1.654-3.722 3.694 1.666 3.694 3.722 3.694M70.44 181.513c2.056 0 3.723-1.654 3.723-3.694s-1.667-3.694-3.722-3.694c-2.056 0-3.722 1.654-3.722 3.694s1.666 3.694 3.722 3.694M36.396 149.066c0 2.056-1.692 3.693-3.722 3.693-2.072 0-3.722-1.679-3.722-3.693 0-2.057 1.692-3.694 3.722-3.694 2.03-.042 3.722 1.637 3.722 3.694M8.525 155.782c2.055 0 3.721-1.654 3.721-3.694s-1.666-3.694-3.721-3.694-3.722 1.654-3.722 3.694 1.666 3.694 3.722 3.694"/><path stroke="#F8F4E9" stroke-dasharray="1.58 1.58" stroke-linecap="round" stroke-linejoin="round" stroke-width="1.5" d="M1.039 232.934c0 2.057-1.692 3.694-3.722 3.694s-3.721-1.679-3.721-3.694c0-2.056 1.691-3.694 3.721-3.694s3.722 1.68 3.722 3.694"/><mask id="c" fill="#fff"><path d="M14.488 349.587c.592 0 1.184.378 1.48.923l2.96 5.751a2.21 2.21 0 0 0 1.988 1.217c.762 0 1.48-.377 1.904-1.007l3.594-5.499a1.56 1.56 0 0 1 1.311-.713c.254 0 .635.042.973.335.635.504.761 1.428.296 2.141l-3.552 5.415a2.32 2.32 0 0 0-.127 2.225c.38.713 1.057 1.175 1.903 1.217l6.598.336a1.78 1.78 0 0 1 1.141.588c.297.335.423.797.339 1.217-.127.756-.804 1.301-1.65 1.301h-.084l-6.513-.336h-.127c-.804 0-1.523.378-1.903 1.05-.423.672-.423 1.469-.085 2.183l2.96 5.75c.381.756.17 1.679-.507 2.099a1.573 1.573 0 0 1-2.241-.587l-3.003-5.835a2.21 2.21 0 0 0-1.988-1.217c-.761 0-1.48.377-1.903 1.007l-3.595 5.499a1.56 1.56 0 0 1-1.31.713c-.255 0-.635-.041-.974-.335-.634-.504-.76-1.428-.296-2.141l3.553-5.415a2.32 2.32 0 0 0 .127-2.225c-.38-.713-1.057-1.175-1.903-1.217l-6.598-.336a1.78 1.78 0 0 1-1.142-.588 1.44 1.44 0 0 1-.338-1.217c.127-.756.803-1.301 1.65-1.301h.084l6.513.336h.127c.803 0 1.522-.378 1.903-1.05.423-.671.423-1.469.084-2.183l-3.002-5.834c-.212-.378-.212-.84-.085-1.26.17-.419.465-.755.888-.881.212-.084.38-.126.55-.126m0-1.301c-.338 0-.677.042-1.015.21a2.876 2.876 0 0 0-1.523 3.987l3.003 5.835c.296.63-.127 1.343-.803 1.343h-.043l-6.513-.336h-.169c-1.438 0-2.706 1.008-2.96 2.435-.254 1.679 1.015 3.232 2.706 3.316l6.598.336c.719.042 1.1.84.719 1.427l-3.552 5.415c-.804 1.26-.593 2.939.592 3.862.55.42 1.184.63 1.818.63.93 0 1.903-.462 2.453-1.302l3.595-5.498c.17-.294.465-.42.761-.42.338 0 .634.168.846.503l3.003 5.835c.507 1.008 1.522 1.553 2.58 1.553.55 0 1.057-.126 1.564-.461 1.27-.798 1.65-2.477.973-3.82l-2.96-5.751c-.296-.63.127-1.343.803-1.343h.043l6.512.336h.17c1.438 0 2.706-1.008 2.96-2.435.254-1.679-1.015-3.232-2.707-3.316l-6.597-.336a.924.924 0 0 1-.72-1.427l3.553-5.415c.804-1.26.592-2.939-.592-3.862a3 3 0 0 0-1.818-.63c-.93 0-1.903.462-2.453 1.302l-3.595 5.498c-.17.294-.465.42-.761.42-.339 0-.635-.168-.846-.503l-2.96-5.751a3.01 3.01 0 0 0-2.665-1.637"/></mask><path fill="#AF143C" d="M14.488 349.587c.592 0 1.184.378 1.48.923l2.96 5.751a2.21 2.21 0 0 0 1.988 1.217c.762 0 1.48-.377 1.904-1.007l3.594-5.499a1.56 1.56 0 0 1 1.311-.713c.254 0 .635.042.973.335.635.504.761 1.428.296 2.141l-3.552 5.415a2.32 2.32 0 0 0-.127 2.225c.38.713 1.057 1.175 1.903 1.217l6.598.336a1.78 1.78 0 0 1 1.141.588c.297.335.423.797.339 1.217-.127.756-.804 1.301-1.65 1.301h-.084l-6.513-.336h-.127c-.804 0-1.523.378-1.903 1.05-.423.672-.423 1.469-.085 2.183l2.96 5.75c.381.756.17 1.679-.507 2.099a1.573 1.573 0 0 1-2.241-.587l-3.003-5.835a2.21 2.21 0 0 0-1.988-1.217c-.761 0-1.48.377-1.903 1.007l-3.595 5.499a1.56 1.56 0 0 1-1.31.713c-.255 0-.635-.041-.974-.335-.634-.504-.76-1.428-.296-2.141l3.553-5.415a2.32 2.32 0 0 0 .127-2.225c-.38-.713-1.057-1.175-1.903-1.217l-6.598-.336a1.78 1.78 0 0 1-1.142-.588 1.44 1.44 0 0 1-.338-1.217c.127-.756.803-1.301 1.65-1.301h.084l6.513.336h.127c.803 0 1.522-.378 1.903-1.05.423-.671.423-1.469.084-2.183l-3.002-5.834c-.212-.378-.212-.84-.085-1.26.17-.419.465-.755.888-.881.212-.084.38-.126.55-.126m0-1.301c-.338 0-.677.042-1.015.21a2.876 2.876 0 0 0-1.523 3.987l3.003 5.835c.296.63-.127 1.343-.803 1.343h-.043l-6.513-.336h-.169c-1.438 0-2.706 1.008-2.96 2.435-.254 1.679 1.015 3.232 2.706 3.316l6.598.336c.719.042 1.1.84.719 1.427l-3.552 5.415c-.804 1.26-.593 2.939.592 3.862.55.42 1.184.63 1.818.63.93 0 1.903-.462 2.453-1.302l3.595-5.498c.17-.294.465-.42.761-.42.338 0 .634.168.846.503l3.003 5.835c.507 1.008 1.522 1.553 2.58 1.553.55 0 1.057-.126 1.564-.461 1.27-.798 1.65-2.477.973-3.82l-2.96-5.751c-.296-.63.127-1.343.803-1.343h.043l6.512.336h.17c1.438 0 2.706-1.008 2.96-2.435.254-1.679-1.015-3.232-2.707-3.316l-6.597-.336a.924.924 0 0 1-.72-1.427l3.553-5.415c.804-1.26.592-2.939-.592-3.862a3 3 0 0 0-1.818-.63c-.93 0-1.903.462-2.453 1.302l-3.595 5.498c-.17.294-.465.42-.761.42-.339 0-.635-.168-.846-.503l-2.96-5.751a3.01 3.01 0 0 0-2.665-1.637"/><path fill="#F8F4E9" d="m15.968 350.51 1.334-.686-.008-.015-.007-.014zm2.96 5.751 1.34-.675-.006-.011zm3.892.21 1.245.836.005-.007.005-.008zm3.594-5.499 1.256.821.007-.011zm2.284-.378-.983 1.133.024.022.026.02zm.296 2.141 1.254.823.003-.004zm-3.552 5.415-1.255-.823-.007.012-.008.012zm-.127 2.225-1.356.643.016.032.016.031zm1.903 1.217.076-1.498h-.002zm6.598.336.148-1.493-.036-.003-.036-.002zm1.48 1.805-1.47-.296-.005.024-.005.024zm-1.734 1.301-.078 1.498.04.002h.038zm-6.513-.336.077-1.498-.039-.002h-.038zm-2.03 1.05 1.27.799.018-.029.017-.031zm-.085 2.183-1.355.642.01.022.012.022zm2.96 5.75 1.34-.674-.006-.012zm-.507 2.099-.79-1.274-.02.011-.018.012zm-2.241-.587 1.34-.675-.007-.012zm-3.003-5.835-1.34.675.006.011zm-3.891-.21-1.245-.836-.005.007-.005.008zm-3.595 5.499-1.255-.821-.008.011zm-2.284.378.984-1.133-.025-.022-.026-.02zm-.296-2.141-1.254-.823-.002.004zm3.553-5.415 1.254.823.008-.012.007-.012zm.127-2.225 1.355-.642-.015-.033-.017-.031zm-1.903-1.217-.077 1.498h.002zm-6.598-.336-.148 1.493.036.003.036.002zm-1.48-1.805 1.47.296.005-.024.004-.024zm1.734-1.301.077-1.498-.039-.002H7.51zm6.513.336-.078 1.498.04.002h.038zm2.03-1.05-1.27-.799-.018.029-.017.031zm.084-2.183 1.356-.642-.01-.022-.012-.022zm-3.002-5.834 1.333-.687-.012-.023-.012-.023zm-.085-1.26-1.391-.56-.025.062-.02.064zm.888-.881.428 1.437.064-.018.062-.025zm-.465-1.217.547 1.396.061-.024.059-.029zm-1.523 3.987-1.34.675.007.012zm3.003 5.835 1.358-.638-.012-.024-.012-.024zm-.846 1.343-.077 1.498.039.002h.038zm-6.513-.336.078-1.498-.039-.002h-.039zm-3.13 2.435-1.476-.262-.003.019-.003.019zm2.707 3.316.077-1.498h-.002zm6.598.336.088-1.497-.012-.001zm.719 1.427 1.254.823.005-.007zm-3.552 5.415-1.255-.823-.005.008-.005.008zm.592 3.862-.923 1.183.006.005.006.004zm4.271-.672 1.255.822v-.001zm3.595-5.498 1.255.82.024-.035.02-.037zm1.607.083 1.334-.686-.03-.058-.035-.055zm3.003 5.835 1.34-.675-.007-.011zm4.144 1.092-.798-1.27-.015.009-.014.01zm.973-3.82 1.34-.675-.006-.012zm-2.96-5.751-1.358.638.012.025.012.023zm.845-1.343.078-1.498-.039-.002h-.039zm6.514.336-.078 1.498.039.002h.038zm3.13-2.435 1.476.262.003-.019.003-.019zm-2.708-3.316-.076 1.498h.002zm-6.597-.336-.088 1.497.012.001zm-.72-1.427-1.253-.823-.005.007zm3.553-5.415 1.255.823.005-.008.005-.008zm-.592-3.862.923-1.183-.006-.005-.006-.004zm-4.271.672-1.255-.822v.001zm-3.595 5.498-1.255-.82-.024.035-.021.037zm-1.607-.083-1.334.686.03.058.034.055zm-2.96-5.751-1.34.675.006.011zm-2.665-.336v1.5c-.02 0 .003-.005.053.027s.089.075.109.112l1.318-.716 1.319-.715c-.532-.979-1.602-1.708-2.799-1.708zm1.48.923-1.333.687 2.96 5.751 1.334-.687 1.333-.686-2.96-5.751zm2.96 5.751-1.339.675a3.71 3.71 0 0 0 3.327 2.042v-3a.71.71 0 0 1-.648-.392zm1.988 1.217v1.5a3.8 3.8 0 0 0 3.149-1.671l-1.245-.836-1.246-.836a.8.8 0 0 1-.658.343zm1.904-1.007 1.255.821 3.595-5.499-1.256-.821-1.255-.821-3.595 5.499zm3.594-5.499 1.263.81a.04.04 0 0 1 .017-.015.1.1 0 0 1 .031-.008v-3c-.99 0-1.987.488-2.573 1.404zm1.311-.713v1.5l.052.002-.029-.012a.2.2 0 0 1-.033-.022l.983-1.133.984-1.132c-.733-.637-1.544-.703-1.957-.703zm.973.335-.933 1.175.002.002a.1.1 0 0 1 .006.02.2.2 0 0 1-.035.125l1.256.819 1.257.819c.852-1.307.67-3.11-.62-4.134zm.296 2.141-1.254-.823-3.552 5.415 1.254.823 1.254.823 3.552-5.415zm-3.552 5.415-1.27-.799a3.81 3.81 0 0 0-.213 3.667l1.356-.643 1.355-.643a.81.81 0 0 1 .041-.783zm-.127 2.225-1.324.706c.616 1.155 1.753 1.94 3.153 2.009l.074-1.498.074-1.498q-.436-.019-.654-.425zm1.903 1.217-.076 1.498 6.597.336.077-1.498.076-1.498-6.598-.336zm6.598.336-.149 1.493a.2.2 0 0 1 .086.027.3.3 0 0 1 .08.06l1.124-.992 1.126-.992a3.28 3.28 0 0 0-2.12-1.089zm1.141.588-1.125.992a.03.03 0 0 1-.008-.015.1.1 0 0 1 .001-.056l1.47.296 1.471.296a2.94 2.94 0 0 0-.683-2.505zm.339 1.217-1.48-.248.001-.002q.003 0-.01.009c-.014.012-.063.042-.16.042v3c1.495 0 2.867-.996 3.128-2.553zm-1.65 1.301v-1.5h-.084v3h.084zm-.084 0 .077-1.498-6.513-.336-.077 1.498-.078 1.498 6.513.336zm-6.513-.336v-1.5h-.127v3h.126zm-.127 0v-1.5c-1.275 0-2.529.612-3.208 1.81l1.305.74 1.305.739c.082-.144.265-.289.598-.289zm-1.903 1.05-1.27-.799c-.733 1.164-.697 2.513-.17 3.624l1.355-.642 1.355-.643c-.15-.316-.114-.562 0-.741zm-.085 2.183-1.334.686 2.961 5.751 1.334-.687 1.333-.686-2.96-5.751zm2.96 5.75-1.339.675c.03.06.032.118.023.154q-.008.024-.006.017c.004-.004.012-.014.024-.021l.791 1.274.79 1.275c1.43-.887 1.736-2.7 1.057-4.048zm-.507 2.099-.828-1.251-.002.001-.016.002v3c.578 0 1.164-.163 1.674-.501zm-.846.252v-1.5a.1.1 0 0 1-.049-.015l-.013-.01.006.011-1.34.675-1.339.674c.518 1.028 1.597 1.665 2.735 1.665zm-1.395-.839 1.333-.687-3.002-5.835-1.334.687-1.334.686 3.003 5.835zm-3.003-5.835 1.34-.675a3.71 3.71 0 0 0-3.328-2.042v3c.288 0 .526.15.648.392zm-1.988-1.217v-1.5a3.8 3.8 0 0 0-3.148 1.671l1.245.836 1.245.836a.8.8 0 0 1 .658-.343zm-1.903 1.007-1.255-.821-3.595 5.499 1.255.821 1.256.821 3.595-5.499zm-3.595 5.499-1.263-.81a.04.04 0 0 1-.016.015.1.1 0 0 1-.032.008v3c.99 0 1.987-.488 2.574-1.404zm-1.31.713v-1.5l-.047-.001-.005-.001.028.012a.2.2 0 0 1 .034.022l-.984 1.133-.983 1.132c.733.637 1.544.703 1.956.703zm-.974-.335.933-1.175-.001-.002a.1.1 0 0 1-.006-.02.2.2 0 0 1 .035-.125l-1.257-.819-1.256-.819c-.853 1.307-.67 3.11.62 4.134zm-.296-2.141 1.255.823 3.552-5.415-1.254-.823-1.254-.823-3.553 5.415zm3.553-5.415 1.27.799a3.81 3.81 0 0 0 .212-3.666l-1.355.642-1.356.643a.81.81 0 0 1-.04.783zm.127-2.225 1.323-.706c-.616-1.155-1.753-1.94-3.152-2.009l-.074 1.498-.075 1.498q.438.019.654.425zm-1.903-1.217.076-1.498-6.598-.336-.076 1.498-.076 1.498 6.597.336zm-6.598-.336.148-1.493a.2.2 0 0 1-.085-.027.3.3 0 0 1-.08-.06l-1.125.992-1.125.992a3.28 3.28 0 0 0 2.119 1.089zm-1.142-.588 1.125-.992a.03.03 0 0 1 .009.015c0 .002.005.021-.002.056l-1.47-.296-1.47-.296c-.182.898.09 1.832.683 2.505zm-.338-1.217 1.48.248-.002.002q-.002 0 .01-.009c.015-.012.063-.042.161-.042v-3c-1.495 0-2.867.996-3.128 2.553zm1.65-1.301v1.5h.083v-3h-.083zm.084 0-.077 1.498 6.512.336.078-1.498.077-1.498-6.513-.336zm6.513.336v1.5h.126v-3h-.126zm.127 0v1.5c1.274 0 2.528-.611 3.208-1.81l-1.305-.74-1.305-.739c-.082.144-.266.289-.598.289zm1.903-1.05 1.27.799c.732-1.164.697-2.513.17-3.624l-1.356.642-1.355.643c.15.316.114.562.002.741zm.084-2.183 1.334-.686-3.003-5.835-1.333.687-1.334.686 3.003 5.835zm-3.002-5.834 1.309-.733c.023.042.02.064.02.045a.4.4 0 0 1 .022-.138l-1.436-.434-1.436-.434c-.205.678-.257 1.588.212 2.426zm-.085-1.26 1.391.561c.025-.061.043-.076.033-.066a.279.279 0 0 1-.108.061l-.428-1.437-.428-1.438c-.982.293-1.565 1.048-1.851 1.759zm.888-.881.554 1.394.063-.023.015-.005-.028.005-.054.003v-3c-.432 0-.8.111-1.103.232zm.55-1.427v-1.5c-.465 0-1.06.057-1.682.366l.667 1.344.667 1.343c.054-.027.136-.053.348-.053zm-1.015.21-.547-1.397a4.377 4.377 0 0 0-2.315 6.059l1.34-.675 1.34-.675a1.377 1.377 0 0 1 .73-1.916zm-1.523 3.987-1.333.687 3.002 5.834 1.334-.686 1.334-.686-3.003-5.835zm3.003 5.835-1.357.638a.54.54 0 0 1 .032-.498.62.62 0 0 1 .522-.297v3c1.88 0 2.88-1.952 2.16-3.481zm-.803 1.343v-1.5h-.043v3h.043zm-.043 0 .078-1.498-6.513-.336-.078 1.498-.077 1.498 6.513.336zm-6.513-.336v-1.5h-.168v3h.168zm-.169 0v-1.5c-2.127 0-4.05 1.493-4.437 3.673l1.477.262 1.477.263c.12-.675.735-1.198 1.483-1.198zm-2.96 2.435-1.483-.224c-.386 2.554 1.534 4.91 4.115 5.038l.074-1.498.075-1.498a1.4 1.4 0 0 1-1.298-1.594zm2.706 3.316-.076 1.498 6.598.336.076-1.498.076-1.498-6.597-.336zm6.598.336-.087 1.498c-.468-.028-.676-.542-.453-.886l1.259.815 1.259.816c.985-1.52.015-3.629-1.89-3.74zm.719 1.427-1.254-.823-3.553 5.415 1.255.823 1.254.823 3.552-5.415zm-3.552 5.415-1.265-.807c-1.181 1.851-.915 4.41.934 5.852l.923-1.183.922-1.183c-.519-.405-.676-1.204-.25-1.872zm.592 3.862-.91 1.192a4.5 4.5 0 0 0 2.728.938v-3c-.297 0-.614-.097-.908-.322zm1.818.63v1.5c1.39 0 2.856-.679 3.708-1.98l-1.255-.822-1.255-.821c-.248.378-.727.623-1.198.623zm2.453-1.302 1.256.821 3.594-5.499-1.255-.82-1.256-.821-3.595 5.499zm3.595-5.498 1.3.748a.7.7 0 0 1-.28.264.6.6 0 0 1-.259.068v-3c-.718 0-1.571.321-2.061 1.171zm.761-.42v1.5a.6.6 0 0 1-.29-.081.4.4 0 0 1-.133-.116l1.269-.8 1.27-.799c-.453-.718-1.201-1.204-2.116-1.204zm.846.503-1.334.687 3.003 5.835 1.334-.687 1.333-.686-3.002-5.835zm3.003 5.835-1.34.675c.787 1.562 2.352 2.378 3.92 2.378v-3c-.548 0-1.012-.275-1.24-.728zm2.58 1.553v1.5c.81 0 1.612-.194 2.392-.71l-.828-1.251-.827-1.251a1.23 1.23 0 0 1-.737.212zm1.564-.461.799 1.27c1.991-1.252 2.501-3.805 1.514-5.765l-1.34.675-1.34.675c.366.726.115 1.531-.43 1.875zm.973-3.82 1.334-.687-2.96-5.751-1.334.687-1.334.686 2.96 5.751zm-2.96-5.751 1.357-.638a.54.54 0 0 1-.032.498.62.62 0 0 1-.522.297v-3c-1.88 0-2.88 1.952-2.16 3.481zm.803-1.343v1.5h.043v-3h-.043zm.043 0-.078 1.498 6.513.336.078-1.498.077-1.498-6.513-.336zm6.512.336v1.5h.169v-3h-.168zm.17 0v1.5c2.127 0 4.05-1.493 4.437-3.673l-1.477-.262-1.477-.263c-.12.675-.735 1.198-1.483 1.198zm2.96-2.435 1.483.224c.386-2.554-1.534-4.91-4.115-5.038l-.075 1.498-.074 1.498a1.4 1.4 0 0 1 1.298 1.594zm-2.707-3.316.077-1.498-6.598-.336-.076 1.498-.076 1.498 6.597.336zm-6.597-.336.087-1.497c.468.027.676.541.453.885l-1.26-.815-1.258-.816c-.985 1.52-.015 3.629 1.89 3.74zm-.72-1.427 1.255.823 3.553-5.415-1.255-.823-1.254-.823-3.552 5.415zm3.553-5.415 1.265.807c1.18-1.851.915-4.41-.934-5.852l-.923 1.183-.922 1.183c.519.405.676 1.204.25 1.872zm-.592-3.862.91-1.192a4.5 4.5 0 0 0-2.728-.938v3c.297 0 .613.097.908.322zm-1.818-.63v-1.5c-1.39 0-2.856.679-3.708 1.98l1.255.822 1.255.821c.248-.378.726-.623 1.198-.623zm-2.453 1.302-1.256-.821-3.594 5.499 1.255.82 1.256.821 3.594-5.499zm-3.595 5.498-1.3-.748a.7.7 0 0 1 .279-.264.6.6 0 0 1 .26-.068v3c.718 0 1.571-.321 2.06-1.171zm-.761.42v-1.5c.087 0 .193.025.29.081.092.055.13.111.133.116l-1.27.8-1.268.799c.452.718 1.2 1.204 2.115 1.204zm-.846-.503 1.334-.687-2.96-5.751-1.335.687-1.333.686 2.96 5.751zm-2.96-5.751 1.339-.675a4.51 4.51 0 0 0-4.004-2.462v3a1.51 1.51 0 0 1 1.325.812z" mask="url(#c)"/><mask id="d" fill="#fff"><path d="M158.535 276.17c.465 0 .888.294 1.057.756l1.946 4.995a2.06 2.06 0 0 0 1.945 1.343c.635 0 1.227-.294 1.607-.755l3.426-4.198c.211-.252.508-.378.846-.378.296 0 .55.126.761.294.381.378.381 1.007.042 1.469l-3.383 4.156a2.12 2.12 0 0 0-.338 2.057c.253.671.888 1.175 1.607 1.301l5.329.839c.592.084 1.015.588.972 1.134s-.507 1.007-1.057 1.007h-.169l-5.371-.839c-.127 0-.212-.042-.339-.042-.676 0-1.311.336-1.734.881-.38.546-.465 1.26-.211 1.931l1.945 5.037a.97.97 0 0 1-.042.84c-.084.168-.254.42-.677.546-.084.042-.169.042-.253.042-.466 0-.888-.294-1.058-.756l-1.945-4.995a2.06 2.06 0 0 0-1.945-1.343c-.635 0-1.227.293-1.608.755l-3.425 4.198a1.07 1.07 0 0 1-.846.378c-.296 0-.55-.126-.761-.294-.381-.378-.381-1.008-.043-1.469l3.384-4.156a2.12 2.12 0 0 0 .338-2.057c-.254-.714-.888-1.175-1.607-1.301l-5.371-.84a1.04 1.04 0 0 1-.719-.461c-.085-.126-.254-.462-.127-.84.127-.462.55-.798 1.1-.798h.169l5.329.84c.126 0 .211.042.338.042.677 0 1.311-.336 1.734-.882.381-.545.465-1.259.211-1.93l-1.945-5.038a.97.97 0 0 1 .042-.839c.085-.168.254-.42.677-.546 0-.042.084-.084.169-.084m0-1.301c-.211 0-.423.042-.592.084-1.353.378-2.115 1.847-1.607 3.148l1.945 5.037c.212.504-.169 1.05-.719 1.05h-.127l-5.328-.84c-.127 0-.254-.042-.381-.042-1.1 0-2.072.714-2.368 1.763-.339 1.385.549 2.729 1.945 2.938l5.371.84a.738.738 0 0 1 .465 1.217l-3.383 4.156c-.761.965-.761 2.351.127 3.232.465.462 1.057.672 1.692.672.676 0 1.395-.294 1.86-.882l3.426-4.197a.74.74 0 0 1 .592-.294.76.76 0 0 1 .719.504l1.946 4.995c.38.965 1.268 1.595 2.283 1.595.212 0 .423-.042.592-.084 1.354-.378 2.115-1.847 1.608-3.148l-1.946-5.038c-.211-.503.169-1.049.719-1.049h.127l5.371.84c.127 0 .254.042.381.042 1.226 0 2.326-.966 2.368-2.225.085-1.217-.846-2.309-2.072-2.477l-5.329-.839a.739.739 0 0 1-.465-1.218l3.383-4.155c.761-.966.761-2.351-.127-3.232-.465-.462-1.057-.672-1.691-.672-.677 0-1.396.294-1.861.881l-3.426 4.198a.74.74 0 0 1-.592.294.76.76 0 0 1-.719-.504l-1.945-4.995a2.4 2.4 0 0 0-2.242-1.595"/></mask><path fill="#AF143C" d="M158.535 276.17c.465 0 .888.294 1.057.756l1.946 4.995a2.06 2.06 0 0 0 1.945 1.343c.635 0 1.227-.294 1.607-.755l3.426-4.198c.211-.252.508-.378.846-.378.296 0 .55.126.761.294.381.378.381 1.007.042 1.469l-3.383 4.156a2.12 2.12 0 0 0-.338 2.057c.253.671.888 1.175 1.607 1.301l5.329.839c.592.084 1.015.588.972 1.134s-.507 1.007-1.057 1.007h-.169l-5.371-.839c-.127 0-.212-.042-.339-.042-.676 0-1.311.336-1.734.881-.38.546-.465 1.26-.211 1.931l1.945 5.037a.97.97 0 0 1-.042.84c-.084.168-.254.42-.677.546-.084.042-.169.042-.253.042-.466 0-.888-.294-1.058-.756l-1.945-4.995a2.06 2.06 0 0 0-1.945-1.343c-.635 0-1.227.293-1.608.755l-3.425 4.198a1.07 1.07 0 0 1-.846.378c-.296 0-.55-.126-.761-.294-.381-.378-.381-1.008-.043-1.469l3.384-4.156a2.12 2.12 0 0 0 .338-2.057c-.254-.714-.888-1.175-1.607-1.301l-5.371-.84a1.04 1.04 0 0 1-.719-.461c-.085-.126-.254-.462-.127-.84.127-.462.55-.798 1.1-.798h.169l5.329.84c.126 0 .211.042.338.042.677 0 1.311-.336 1.734-.882.381-.545.465-1.259.211-1.93l-1.945-5.038a.97.97 0 0 1 .042-.839c.085-.168.254-.42.677-.546 0-.042.084-.084.169-.084m0-1.301c-.211 0-.423.042-.592.084-1.353.378-2.115 1.847-1.607 3.148l1.945 5.037c.212.504-.169 1.05-.719 1.05h-.127l-5.328-.84c-.127 0-.254-.042-.381-.042-1.1 0-2.072.714-2.368 1.763-.339 1.385.549 2.729 1.945 2.938l5.371.84a.738.738 0 0 1 .465 1.217l-3.383 4.156c-.761.965-.761 2.351.127 3.232.465.462 1.057.672 1.692.672.676 0 1.395-.294 1.86-.882l3.426-4.197a.74.74 0 0 1 .592-.294.76.76 0 0 1 .719.504l1.946 4.995c.38.965 1.268 1.595 2.283 1.595.212 0 .423-.042.592-.084 1.354-.378 2.115-1.847 1.608-3.148l-1.946-5.038c-.211-.503.169-1.049.719-1.049h.127l5.371.84c.127 0 .254.042.381.042 1.226 0 2.326-.966 2.368-2.225.085-1.217-.846-2.309-2.072-2.477l-5.329-.839a.739.739 0 0 1-.465-1.218l3.383-4.155c.761-.966.761-2.351-.127-3.232-.465-.462-1.057-.672-1.691-.672-.677 0-1.396.294-1.861.881l-3.426 4.198a.74.74 0 0 1-.592.294.76.76 0 0 1-.719-.504l-1.945-4.995a2.4 2.4 0 0 0-2.242-1.595"/><path fill="#F8F4E9" d="m159.592 276.926-1.408.516.005.014.006.014zm1.946 4.995 1.406-.522-.004-.011-.004-.011zm3.552.588 1.158.954.004-.006zm3.426-4.198-1.149-.965-.007.008-.006.009zm1.607-.084 1.057-1.065-.059-.058-.065-.052zm.042 1.469 1.164.947.024-.029.022-.031zm-3.383 4.156-1.163-.947-.007.008-.006.008zm-.338 2.057-1.414.502.005.014.006.014zm1.607 1.301-.259 1.477.013.003.012.002zm5.329.839-.234 1.482.012.002.011.002zm-.254 2.141-.232 1.482.115.018h.117zm-5.371-.839.231-1.482-.115-.018h-.116zm-2.073.839-1.185-.919-.023.03-.022.031zm-.211 1.931-1.403.53.004.011zm1.945 5.037-1.399.541.011.027.011.027zm-.042.84-1.34-.675zm-.677.546-.428-1.438-.123.037-.115.057zm-1.311-.714 1.409-.516-.005-.014-.006-.014zm-1.945-4.995-1.406.522.004.011.004.011zm-3.553-.588-1.157-.954-.005.006zm-3.425 4.198 1.149.964.006-.008.007-.008zm-1.607.084-1.057 1.064.059.059.065.051zm-.043-1.469-1.163-.947-.024.029-.023.031zm3.384-4.156 1.163.947.006-.008.007-.008zm-1.269-3.358.259-1.478-.014-.002-.013-.002zm-5.371-.84.231-1.482-.01-.001-.011-.002zm-.846-1.301 1.422.478.013-.04.011-.041zm1.269-.798.233-1.481-.116-.019h-.117zm5.329.84-.234 1.482.116.018h.118zm2.072-.84 1.186.919.023-.03.021-.03zm.211-1.93 1.404-.531-.004-.01zm-1.945-5.038 1.399-.54-.01-.027-.012-.027zm.042-.839-1.339-.675zm.677-.546.428 1.438 1.072-.319v-1.119zm-.423-1.301-.361-1.456-.021.005-.021.006zm-1.607 3.148 1.399-.54-.002-.005zm1.945 5.037-1.399.541.008.02.008.02zm-.846 1.05-.233 1.481.116.019h.117zm-5.328-.84.233-1.482-.116-.018h-.117zm-2.749 1.721-1.444-.407-.007.025-.007.026zm1.945 2.938.232-1.482-.009-.001zm5.371.84-.231 1.482.01.002.011.001zm.465 1.217-1.157-.954-.006.007zm-3.383 4.156-1.163-.947-.008.009-.007.009zm3.679 3.022-1.162-.948-.007.009-.007.008zm3.426-4.197 1.162.948.006-.007zm1.311.21-1.403.53.003.007.002.007zm1.946 4.995-1.398.544.002.006zm2.875 1.511.362 1.456.021-.005.021-.006zm1.608-3.148-1.4.54.002.005zm-1.946-5.038 1.399-.54-.007-.02-.009-.02zm.846-1.049.232-1.482-.115-.018h-.117zm5.371.84-.232 1.482.116.018h.116zm2.749-2.183-1.496-.104-.002.027-.001.027zm-2.072-2.477-.234 1.482.015.002.015.002zm-5.329-.839.233-1.482-.011-.002-.011-.001zm-.465-1.218 1.157.955.006-.008zm3.383-4.155 1.163.947.008-.009.007-.01zm-3.679-3.023 1.162.949.007-.009.007-.009zm-3.426 4.198-1.162-.948-.006.007zm-1.311-.21 1.403-.53-.003-.007-.002-.007zm-1.945-4.995-1.416.496.008.024.01.024zm-2.242-.294v1.5a.37.37 0 0 1-.351-.228l1.408-.516 1.409-.516a2.63 2.63 0 0 0-2.466-1.74zm1.057.756-1.397.544 1.945 4.995 1.398-.544 1.398-.544-1.946-4.996zm1.946 4.995-1.406.522a3.56 3.56 0 0 0 3.351 2.321v-3a.56.56 0 0 1-.539-.365zm1.945 1.343v1.5a3.6 3.6 0 0 0 2.765-1.301l-1.158-.954-1.157-.955a.6.6 0 0 1-.45.21zm1.607-.755 1.162.948 3.426-4.198-1.162-.948-1.162-.948-3.426 4.197zm3.426-4.198 1.149.964a.5.5 0 0 1-.168.125.4.4 0 0 1-.135.033v-3c-.735 0-1.47.288-1.995.913zm.846-.378v1.5a.4.4 0 0 1-.161-.03c-.03-.012-.033-.019-.011-.001l.933-1.175.933-1.175c-.375-.298-.949-.619-1.694-.619zm.761.294-1.057 1.065a.5.5 0 0 1-.152-.332.24.24 0 0 1 .041-.15l1.21.886 1.21.887c.684-.933.818-2.415-.195-3.421zm.042 1.469-1.163-.947-3.383 4.156 1.163.947 1.163.947 3.384-4.156zm-3.383 4.156-1.176-.931a3.62 3.62 0 0 0-.576 3.49l1.414-.502 1.413-.503a.62.62 0 0 1 .101-.623zm-.338 2.057-1.403.53c.451 1.196 1.541 2.037 2.751 2.248l.259-1.477.259-1.478c-.228-.04-.408-.206-.463-.353zm1.607 1.301-.234 1.482 5.329.839.234-1.482.233-1.481-5.329-.84zm5.329.839-.211 1.486a.34.34 0 0 1-.207-.119.48.48 0 0 1-.105-.349l1.495.116 1.496.116c.109-1.415-.964-2.551-2.258-2.735zm.972 1.134-1.495-.116a.4.4 0 0 1 .115-.255.46.46 0 0 1 .323-.122v3c1.389 0 2.454-1.122 2.553-2.391zm-1.057 1.007v-1.5h-.169v3h.169zm-.169 0 .232-1.482-5.372-.839-.231 1.482-.232 1.482 5.371.839zm-5.371-.839v-1.5c.102 0 .183.019.123.008a2.2 2.2 0 0 0-.462-.05v3c-.102 0-.182-.02-.123-.008.046.009.233.05.462.05zm-.339-.042v-1.5c-1.182 0-2.239.584-2.919 1.462l1.185.919 1.186.919c.165-.213.377-.3.548-.3zm-1.734.881-1.23-.858c-.679.975-.803 2.211-.384 3.319l1.403-.53 1.403-.53c-.089-.235-.043-.426.039-.543zm-.211 1.931-1.399.541 1.945 5.037 1.399-.541 1.4-.54-1.946-5.037zm1.945 5.037-1.377.595a.6.6 0 0 1-.044-.271.5.5 0 0 1 .039-.159l1.34.675 1.34.675c.28-.556.42-1.321.08-2.109zm-.042.84-1.34-.675c.006-.011.037-.069.1-.128a.5.5 0 0 1 .123-.084l.012-.005.428 1.438.429 1.437a2.53 2.53 0 0 0 1.588-1.308zm-.677.546-.666-1.344a1.1 1.1 0 0 1 .355-.108c.064-.008.115-.006.058-.006v3c.047 0 .477.021.92-.199zm-.253.042v-1.5c.181 0 .309.115.351.228l-1.409.516-1.408.516a2.63 2.63 0 0 0 2.466 1.74zm-1.058-.756 1.398-.544-1.945-4.996-1.398.545-1.398.544 1.946 4.995zm-1.945-4.995 1.406-.522a3.56 3.56 0 0 0-3.351-2.321v3c.257 0 .46.151.539.365zm-1.945-1.343v-1.5a3.6 3.6 0 0 0-2.765 1.301l1.157.954 1.158.954a.6.6 0 0 1 .45-.209zm-1.608.755-1.162-.948-3.425 4.197 1.162.949 1.162.948 3.426-4.197zm-3.425 4.198-1.149-.965a.5.5 0 0 1 .168-.124.3.3 0 0 1 .135-.033v3c.735 0 1.469-.288 1.995-.914zm-.846.378v-1.5c.07 0 .127.015.161.029.029.013.032.02.01.002l-.932 1.175-.933 1.174c.375.298.949.62 1.694.62zm-.761-.294 1.056-1.065c.117.116.151.25.153.331a.24.24 0 0 1-.042.151l-1.21-.886-1.21-.887c-.683.932-.817 2.415.196 3.42zm-.043-1.469 1.164.947 3.383-4.156-1.163-.947-1.163-.947-3.384 4.156zm3.384-4.156 1.176.931a3.62 3.62 0 0 0 .575-3.491l-1.413.503-1.413.503c.08.226.043.44-.101.623zm.338-2.057 1.413-.503c-.461-1.296-1.592-2.071-2.761-2.276l-.259 1.478-.259 1.477c.268.047.406.196.453.327zm-1.607-1.301.232-1.482-5.372-.84-.231 1.482-.232 1.482 5.371.84zm-5.371-.84.21-1.485a.46.46 0 0 1 .316.187l-1.245.837-1.245.836a2.54 2.54 0 0 0 1.753 1.11zm-.719-.461 1.245-.837c.032.048.053.09.067.145a.6.6 0 0 1-.017.33l-1.422-.478-1.422-.478c-.346 1.031.116 1.874.304 2.154zm-.127-.84 1.446.397a.43.43 0 0 1-.159.234.33.33 0 0 1-.187.071v-3c-1.197 0-2.233.76-2.546 1.901zm1.1-.798v1.5h.169v-3h-.169zm.169 0-.234 1.482 5.329.84.234-1.482.233-1.482-5.329-.839zm5.329.84v1.5c-.102 0-.183-.02-.123-.008.046.009.232.05.461.05v-3c.102 0 .182.019.123.008a2.2 2.2 0 0 0-.461-.05zm.338.042v1.5c1.182 0 2.239-.585 2.92-1.463l-1.186-.919-1.186-.918c-.165.213-.377.3-.548.3zm1.734-.882 1.23.859c.68-.975.803-2.212.385-3.32l-1.404.531-1.403.53c.089.235.043.425-.038.542zm.211-1.93 1.4-.541-1.946-5.037-1.399.54-1.399.541 1.945 5.037zm-1.945-5.038 1.377-.594c.036.084.051.18.045.271a.4.4 0 0 1-.04.159l-1.34-.675-1.339-.675c-.28.556-.421 1.321-.08 2.109zm.042-.839 1.34.675c-.006.01-.036.068-.099.128a.5.5 0 0 1-.124.084l-.012.005-.428-1.438-.428-1.438a2.53 2.53 0 0 0-1.588 1.309zm.677-.546h1.5c0 .509-.253.848-.393.997a1.4 1.4 0 0 1-.388.289c-.18.09-.367.13-.55.13v-3c-.268 0-.539.062-.783.183-.121.06-.297.165-.464.343a1.54 1.54 0 0 0-.422 1.058zm.169-1.385v-1.5c-.392 0-.741.075-.953.128l.361 1.456.361 1.456q.087-.022.151-.032a1 1 0 0 1 .08-.008zm-.592.084-.403-1.445c-2.178.608-3.443 2.981-2.602 5.138l1.398-.545 1.397-.545c-.173-.445.084-1.011.613-1.158zm-1.607 3.148-1.399.54 1.945 5.038 1.399-.541 1.4-.54-1.946-5.037zm1.945 5.037-1.383.581a.738.738 0 0 1 .664-1.031v3c1.561 0 2.752-1.582 2.102-3.13zm-.719 1.05v-1.5h-.127v3h.127zm-.127 0 .234-1.482-5.329-.84-.233 1.482-.234 1.482 5.329.839zm-5.328-.84v-1.5c.049 0 .082.004.089.005l-.035-.006c-.027-.004-.088-.015-.155-.023a2 2 0 0 0-.28-.018v3a1 1 0 0 1-.089-.005l.035.006c.026.004.088.015.155.023.07.009.167.018.28.018zm-.381-.042v-1.5c-1.746 0-3.327 1.136-3.812 2.856l1.444.407 1.443.407a.95.95 0 0 1 .925-.67zm-2.368 1.763-1.458-.356c-.543 2.224.894 4.434 3.18 4.778l.223-1.484.223-1.483c-.505-.076-.845-.552-.711-1.099zm1.945 2.938-.232 1.483 5.372.839.231-1.482.232-1.482-5.371-.84zm5.371.84-.21 1.485a.763.763 0 0 1-.482-1.222l1.157.954 1.158.954c1.108-1.344.366-3.404-1.412-3.656zm.465 1.217-1.163-.947-3.383 4.156 1.163.947 1.163.947 3.384-4.156zm-3.383 4.156-1.178-.929c-1.177 1.493-1.243 3.746.248 5.226l1.057-1.065 1.057-1.064c-.285-.283-.351-.801-.006-1.239zm.127 3.232-1.057 1.065c.78.774 1.768 1.107 2.749 1.107v-3c-.289 0-.485-.087-.635-.236zm1.692.672v1.5c1.082 0 2.256-.464 3.037-1.451l-1.177-.931-1.176-.931a.89.89 0 0 1-.684.313zm1.86-.882 1.163.949 3.425-4.198-1.162-.948-1.162-.949-3.426 4.198zm3.426-4.197 1.168.941a.7.7 0 0 1-.25.191.8.8 0 0 1-.326.074v-3c-.65 0-1.297.278-1.76.852zm.592-.294v1.5a.74.74 0 0 1-.684-.466l1.403-.53 1.403-.531a2.26 2.26 0 0 0-2.122-1.473zm.719.504-1.398.544 1.946 4.995 1.398-.544 1.397-.545-1.945-4.995zm1.946 4.995-1.396.55c.594 1.507 2.015 2.545 3.679 2.545v-3c-.365 0-.721-.221-.888-.645zm2.283 1.595v1.5c.392 0 .742-.076.954-.128l-.362-1.456-.361-1.456a2 2 0 0 1-.151.032 1 1 0 0 1-.08.008zm.592-.084.404 1.445c2.177-.608 3.442-2.981 2.601-5.138l-1.397.545-1.398.545c.174.445-.084 1.01-.613 1.158zm1.608-3.148 1.399-.541-1.946-5.037-1.399.54-1.399.541 1.945 5.037zm-1.946-5.038 1.383-.58a.738.738 0 0 1-.664 1.031v-3c-1.561 0-2.752 1.582-2.102 3.13zm.719-1.049v1.5h.127v-3h-.127zm.127 0-.232 1.482 5.371.84.232-1.482.232-1.482-5.371-.84zm5.371.84v1.5h-.054a2.414 2.414 0 0 0 .435.042v-3c.049 0 .082.004.089.004l-.035-.005a2.6 2.6 0 0 0-.435-.041zm.381.042v1.5c1.965 0 3.795-1.539 3.867-3.675l-1.499-.05-1.499-.05c-.013.382-.381.775-.869.775zm2.368-2.225 1.496.104c.143-2.051-1.402-3.798-3.365-4.067l-.203 1.486-.204 1.486c.491.068.806.503.78.887zm-2.072-2.477.233-1.481-5.329-.84-.233 1.482-.233 1.481 5.328.84zm-5.329-.839.211-1.485a.763.763 0 0 1 .481 1.221l-1.157-.954-1.158-.954c-1.108 1.345-.366 3.405 1.412 3.657zm-.465-1.218 1.163.947 3.383-4.155-1.163-.947-1.163-.947-3.383 4.155zm3.383-4.155 1.178.928c1.177-1.492 1.243-3.745-.248-5.225l-1.057 1.065-1.056 1.064c.284.283.351.801.005 1.239zm-.127-3.232 1.057-1.065c-.78-.774-1.768-1.107-2.748-1.107v3c.288 0 .484.087.635.236zm-1.691-.672v-1.5c-1.083 0-2.257.464-3.037 1.45l1.176.931 1.176.931a.89.89 0 0 1 .685-.312zm-1.861.881-1.162-.948-3.426 4.198 1.162.948 1.162.948 3.426-4.197zm-3.426 4.198-1.168-.941a.7.7 0 0 1 .25-.191.8.8 0 0 1 .326-.074v3a2.24 2.24 0 0 0 1.76-.853zm-.592.294v-1.5c.133 0 .275.037.405.123.136.09.232.217.279.343l-1.403.53-1.403.53a2.26 2.26 0 0 0 2.122 1.474zm-.719-.504 1.398-.544-1.946-4.995-1.397.544-1.398.544 1.945 4.996zm-1.945-4.995 1.415-.496a3.9 3.9 0 0 0-3.657-2.599v3c.348 0 .703.239.826.591z" mask="url(#d)"/><path stroke="#F8F4E9" stroke-linecap="round" stroke-linejoin="round" stroke-width="1.5" d="M88.034 131.226v.335"/><path stroke="#F8F4E9" stroke-dasharray="1.57 1.57" stroke-linecap="round" stroke-linejoin="round" stroke-width="1.5" d="M88.034 133.618v4.45"/><path stroke="#F8F4E9" stroke-linecap="round" stroke-linejoin="round" stroke-width="1.5" d="M88.034 139.117v.336M88.034 118.633v.335"/><path stroke="#F8F4E9" stroke-dasharray="1.67 1.67" stroke-linecap="round" stroke-linejoin="round" stroke-width="1.5" d="M88.034 121.193v4.702"/><path stroke="#F8F4E9" stroke-linecap="round" stroke-linejoin="round" stroke-width="1.5" d="M88.034 127.028v.336M89.726 130.008l.296.168"/><path stroke="#F8F4E9" stroke-dasharray="1.62 1.62" stroke-linecap="round" stroke-linejoin="round" stroke-width="1.5" d="m91.883 131.226 4.017 2.308"/><path stroke="#F8F4E9" stroke-linecap="round" stroke-linejoin="round" stroke-width="1.5" d="m96.83 134.08.297.168M78.941 123.838l.296.168"/><path stroke="#F8F4E9" stroke-dasharray="1.66 1.66" stroke-linecap="round" stroke-linejoin="round" stroke-width="1.5" d="m81.183 125.097 4.06 2.351"/><path stroke="#F8F4E9" stroke-linecap="round" stroke-linejoin="round" stroke-width="1.5" d="m86.216 127.993.296.168M89.853 127.993l.296-.168"/><path stroke="#F8F4E9" stroke-dasharray="1.6 1.6" stroke-linecap="round" stroke-linejoin="round" stroke-width="1.5" d="m91.967 126.776 3.933-2.225"/><path stroke="#F8F4E9" stroke-linecap="round" stroke-linejoin="round" stroke-width="1.5" d="m96.83 124.006.297-.168M78.941 134.248l.296-.168"/><path stroke="#F8F4E9" stroke-dasharray="1.62 1.62" stroke-linecap="round" stroke-linejoin="round" stroke-width="1.5" d="m81.14 132.989 3.976-2.267"/><path stroke="#F8F4E9" stroke-linecap="round" stroke-linejoin="round" stroke-width="1.5" d="m86.089 130.176.254-.168M264.9 141.258l.296.042"/></g></g><defs><clipPath id="a"><rect width="266" height="382" fill="#fff" rx="8"/></clipPath><clipPath id="b"><path fill="#fff" d="M0 0h266v382H0z"/></clipPath></defs></svg>