<svg xmlns="http://www.w3.org/2000/svg" width="290" height="406" fill="none" viewBox="0 0 290 406"><g fill="#AF143C" clip-path="url(#a)"><path d="M57.638 404.803 59 406H0c15.998-15.279 41.02-15.798 57.638-1.197M116.638 404.803 118 406H59c15.998-15.279 41.02-15.798 57.638-1.197M175.638 404.803 177 406h-59c15.998-15.279 41.02-15.798 57.638-1.197M234.638 404.803 236 406h-59c15.998-15.279 41.02-15.798 57.638-1.197M293.638 404.803 295 406h-59c15.998-15.279 41.02-15.798 57.638-1.197"/><path d="M288.803 348.362 290 347v59c-15.279-15.998-15.798-41.02-1.197-57.638M288.803 171.362 290 170v59c-15.279-15.998-15.798-41.02-1.197-57.638M288.803 289.362 290 288v59c-15.279-15.998-15.798-41.02-1.197-57.638M288.803 112.362 290 111v59c-15.279-15.998-15.798-41.02-1.197-57.638M288.803 230.362 290 229v59c-15.279-15.998-15.798-41.02-1.197-57.638M288.803 53.362 290 52v59c-15.279-15.998-15.798-41.02-1.197-57.638M288.803-5.638 290-7v59c-15.279-15.998-15.798-41.02-1.197-57.638"/><path d="M232.362 1.197 231 0h59c-15.998 15.279-41.02 15.798-57.638 1.197M173.362 1.197 172 0h59c-15.998 15.279-41.02 15.798-57.638 1.197M114.362 1.197 113 0h59c-15.998 15.279-41.02 15.798-57.638 1.197M55.362 1.197 54 0h59C97.002 15.279 71.98 15.798 55.362 1.197M-3.638 1.197-5 0h59C38.002 15.279 12.98 15.798-3.638 1.197"/><path d="M1.197 57.638 0 59V0c15.279 15.998 15.798 41.02 1.197 57.638M1.197 234.638 0 236v-59c15.279 15.998 15.798 41.02 1.197 57.638M1.197 116.638 0 118V59c15.279 15.998 15.798 41.02 1.197 57.638M1.197 293.638 0 295v-59c15.279 15.998 15.798 41.02 1.197 57.638M1.197 175.638 0 177v-59c15.279 15.998 15.798 41.02 1.197 57.638M1.197 352.638 0 354v-59c15.279 15.998 15.798 41.02 1.197 57.638M1.197 411.638 0 413v-59c15.279 15.998 15.798 41.02 1.197 57.638"/></g><defs><clipPath id="a"><path fill="#fff" d="M0 0h290v406H0z"/></clipPath></defs></svg>